<svg width="25" height="25" viewBox="0 0 25 25" fill="none" xmlns="http://www.w3.org/2000/svg">
<path d="M23.9223 19.2621H1.07773V5.75234H23.9225V19.2621H23.9223ZM1.85898 18.4809H23.1412V6.53359H1.85898V18.4809Z" fill="#282D33"/>
<path d="M12.4906 15.527C12.0857 15.527 11.7035 15.3908 11.414 15.1434L1.2121 6.42558L1.466 5.73808H23.5156L23.7695 6.42558L13.568 15.1434C13.2777 15.3908 12.8953 15.527 12.4906 15.527ZM2.52401 6.51933L11.9217 14.5494C12.0676 14.6742 12.275 14.7457 12.4906 14.7457C12.7064 14.7457 12.9142 14.6742 13.0607 14.5492L22.4576 6.51933H2.52401V6.51933Z" fill="#282D33"/>
<path d="M9.15053 12.7251L8.63943 12.1343L1.29594 18.4864L1.80703 19.0773L9.15053 12.7251Z" fill="#282D33"/>
<path d="M23.7689 18.487L16.4249 12.1345L15.9138 12.7254L23.2578 19.0779L23.7689 18.487Z" fill="#282D33"/>
<path d="M12.8893 0H12.108V2.49961H12.8893V0Z" fill="#282D33"/>
<path d="M8.95106 3.21311L7.89664 0.947845L7.18836 1.27753L8.24278 3.54279L8.95106 3.21311Z" fill="#282D33"/>
<path d="M17.8099 1.27658L17.1015 0.947052L16.0476 3.21256L16.756 3.54209L17.8099 1.27658Z" fill="#282D33"/>
<path d="M12.8893 22.5004H12.108V25H12.8893V22.5004Z" fill="#282D33"/>
<path d="M17.8094 23.7226L16.755 21.4574L16.0467 21.7871L17.1011 24.0523L17.8094 23.7226Z" fill="#282D33"/>
<path d="M8.95115 21.786L8.24304 21.4565L7.18887 23.7217L7.89697 24.0513L8.95115 21.786Z" fill="#282D33"/>
</svg>
