<svg width="25" height="25" viewBox="0 0 25 25" fill="none" xmlns="http://www.w3.org/2000/svg">
<path d="M23.6373 24.7611H10.9531V14.5393H4.49493V24.7611H1.36368V11.4785H2.1461V23.9789H3.71251V13.7572H11.7354V23.9789H22.8553V11.4785H23.6373V24.7611Z" fill="#282D33"/>
<path d="M4.49492 6.40391H3.71249V1.58809H7.46093V3.27168H6.6787V2.37051H4.49492V6.40391Z" fill="#282D33"/>
<path d="M19.9176 14.3578V19.4551H14.1307V14.3578H19.9176ZM20.6856 13.5902H13.3631V20.2229H20.6852V13.5902H20.6856Z" fill="#282D33"/>
<path d="M24.4469 13.292L12.5 1.34531L0.553125 13.292L0 12.7389L12.5 0.238867L25 12.7389L24.4469 13.292Z" fill="#282D33"/>
<path d="M9.55781 19.7195H8.06699V20.5018H9.55781V19.7195Z" fill="#282D33"/>
<path d="M21.2088 19.2053H12.8391V19.9877H21.2088V19.2053Z" fill="#282D33"/>
</svg>
