<svg width="25" height="25" viewBox="0 0 25 25" fill="none" xmlns="http://www.w3.org/2000/svg">
<path d="M14.5863 0H13.8051V2.03965H14.5863V0Z" fill="#282D33"/>
<path d="M12.6137 2.50374L11.5884 0.737821L10.9129 1.12999L11.9382 2.8959L12.6137 2.50374Z" fill="#282D33"/>
<path d="M11.1397 3.88733L9.36374 2.86801L8.97483 3.54559L10.7508 4.56491L11.1397 3.88733Z" fill="#282D33"/>
<path d="M10.5604 5.81953H8.50977V6.60078H10.5604V5.81953Z" fill="#282D33"/>
<path d="M11.4179 8.45791L11.0289 7.78041L9.25331 8.80004L9.64237 9.47754L11.4179 8.45791Z" fill="#282D33"/>
<path d="M19.9746 8.31758L18.1992 7.29825L17.8102 7.97575L19.5856 8.99508L19.9746 8.31758Z" fill="#282D33"/>
<path d="M20.4391 5.26367H18.3891V6.04492H20.4391V5.26367Z" fill="#282D33"/>
<path d="M19.6949 3.06439L19.3058 2.38689L17.5296 3.40692L17.9186 4.08442L19.6949 3.06439Z" fill="#282D33"/>
<path d="M17.5531 0.851134L16.877 0.459161L15.8528 2.22569L16.5288 2.61766L17.5531 0.851134Z" fill="#282D33"/>
<path d="M18.1424 23.2727H12.5709C11.4561 23.2727 10.4266 22.7887 9.71621 21.9383H8.22187V21.157H10.1002L10.2174 21.3131C10.7801 22.0619 11.6377 22.4914 12.5711 22.4914L19.4687 22.4838C20.0857 22.4838 20.5877 21.9854 20.5877 21.3729C20.5877 20.7602 20.0857 20.2619 19.4687 20.2619V19.4807H20.677C21.2943 19.4807 21.7965 18.982 21.7965 18.3695C21.7965 17.7566 21.2943 17.2582 20.677 17.2582V16.477H21.0797C21.6969 16.477 22.1988 15.9787 22.1988 15.3662C22.1988 14.7535 21.6969 14.2553 21.0797 14.2553V13.474H21.8852C22.5018 13.474 23.0037 12.9756 23.0037 12.3631C23.0037 11.7506 22.502 11.2523 21.8852 11.2523H17.6563C17.5959 11.2523 17.5332 11.258 17.4699 11.2691L17.4021 11.275H15.1922L15.8508 8.96289V6.90098C15.8508 6.0793 15.177 5.41074 14.3486 5.41074H14.0324V8.02813L13.1957 9.19473L10.4459 12.1822C10.0898 12.5553 9.83984 13.0105 9.71855 13.5039L9.64551 13.8012H8.22168V13.0199H9.04648C9.21895 12.509 9.50215 12.0393 9.87598 11.6479L12.6043 8.68359L13.2512 7.77793V4.65703L13.6178 4.63437C13.6633 4.63105 13.6914 4.62949 13.7195 4.62949H14.3486C15.6076 4.62949 16.632 5.64844 16.632 6.90098V9.07168L16.2271 10.4936H17.3701C17.4662 10.4785 17.5623 10.4709 17.6564 10.4709H21.885C22.9324 10.4709 23.7848 11.3197 23.7848 12.3629C23.7848 13.1813 23.2604 13.8801 22.5287 14.1434C22.81 14.4732 22.9801 14.9004 22.9801 15.3662C22.9801 16.0748 22.5867 16.6936 22.0061 17.0178C22.3588 17.3615 22.5779 17.8404 22.5779 18.3695C22.5779 19.3078 21.8887 20.0889 20.9875 20.2369C21.2271 20.5535 21.3691 20.9471 21.3691 21.373C21.3691 22.4164 20.5168 23.2652 19.4689 23.2652L18.1424 23.2727Z" fill="#282D33"/>
<path d="M7.14472 25H1.21542V24.2188H6.36347V13.1871H1.21542V12.4059H7.14472V25Z" fill="#282D33"/>
<path d="M5.37793 22.5262H4.34277V23.3074H5.37793V22.5262Z" fill="#282D33"/>
</svg>
