<svg width="25" height="25" viewBox="0 0 25 25" fill="none" xmlns="http://www.w3.org/2000/svg">
<g clip-path="url(#clip0_18_29)">
<path d="M24.9527 4.5707H22.4297V3.78945H24.1715V2.20586C24.1715 1.42031 23.524 0.781055 22.7281 0.781055V0C23.9547 0 24.9527 0.989648 24.9527 2.20605V4.5707V4.5707Z" fill="#282D33"/>
<path d="M19.2906 25H18.2771C8.07422 24.9984 2.66426 24.998 2.19805 25L2.19492 24.2187C2.66211 24.2168 8.07324 24.2172 18.2773 24.2187H19.2447C19.9641 24.126 20.5035 23.5229 20.5035 22.8072L20.4912 22.1133H20.5035V2.20586C20.5035 1.67226 20.6951 1.1793 21.0174 0.795312C18.7172 0.796093 13.8369 0.795702 6.43457 0.794335L5.46816 0.79414C4.75215 0.886327 4.21484 1.48965 4.21484 2.20586V20.3666H3.43359V2.20586C3.43359 1.08535 4.2791 0.143554 5.4002 0.0154289L5.44453 0.0128899L6.43477 0.0130852C16.6385 0.0152336 22.0479 0.014843 22.5137 0.0128899L22.5598 0.791601C21.8328 0.874804 21.2848 1.48281 21.2848 2.20586V22.8945H21.2826C21.2371 23.9791 20.4055 24.8721 19.3127 24.9977L19.2906 25Z" fill="#282D33"/>
<path d="M2.0584 25L2.01406 24.9977C0.892773 24.8695 0.0470703 23.9275 0.0470703 22.8072V21.5045H17.8986V22.8072C17.8986 23.5301 18.4467 24.1381 19.1732 24.2213L19.1275 25C18.4242 24.9973 6.60059 24.9992 3.04824 25H2.0584ZM0.82832 22.2859V22.8074C0.82832 23.5234 1.36563 24.127 2.08184 24.2189H3.04785C5.91875 24.2182 14.1889 24.217 17.6313 24.2178C17.3094 23.834 17.1174 23.3408 17.1174 22.8074V22.2859H0.82832Z" fill="#282D33"/>
<path d="M24.9529 4.44512H24.1717V2.20586C24.1717 1.42031 23.5242 0.781055 22.7283 0.781055C21.9322 0.781055 21.2846 1.42012 21.2846 2.20586H20.5033C20.5033 0.989454 21.5014 -0.00019455 22.7283 -0.00019455C23.9549 -0.00019455 24.9529 0.989454 24.9529 2.20586V4.44512Z" fill="#282D33"/>
<path d="M19.2346 25C18.1266 25 17.1174 23.9547 17.1174 22.8072V21.3379H17.8986V22.8072C17.8986 23.5328 18.5479 24.2188 19.2346 24.2188V25Z" fill="#282D33"/>
<path d="M17.5457 20.4002L15.8633 19.2508L14.1805 20.4002V16.9045H14.9617V18.9205L15.8633 18.3049L16.7645 18.9205V16.9045H17.5457V20.4002Z" fill="#282D33"/>
<path d="M15.8637 17.8508C14.6629 17.8508 13.6859 16.8818 13.6859 15.6912C13.6859 14.501 14.6629 13.5332 15.8637 13.5332C17.0641 13.5332 18.0406 14.501 18.0406 15.6912C18.0404 16.882 17.0639 17.8508 15.8637 17.8508ZM15.8637 14.3146C15.0938 14.3146 14.4672 14.9322 14.4672 15.6914C14.4672 16.4514 15.0938 17.0697 15.8637 17.0697C16.6332 17.0697 17.2594 16.4514 17.2594 15.6914C17.2592 14.9322 16.6332 14.3146 15.8637 14.3146Z" fill="#282D33"/>
<path d="M16.2539 15.2393H15.4727V16.2527H16.2539V15.2393Z" fill="#282D33"/>
<path d="M15.2893 3.67539H8.69316V4.45664H15.2893V3.67539Z" fill="#282D33"/>
<path d="M17.5463 6.22188H6.43633V7.00313H17.5463V6.22188Z" fill="#282D33"/>
<path d="M17.5463 8.72813H6.43633V9.50938H17.5463V8.72813Z" fill="#282D33"/>
<path d="M17.5463 11.2346H6.43633V12.0158H17.5463V11.2346Z" fill="#282D33"/>
<path d="M13.0404 13.7406H6.43633V14.5219H13.0404V13.7406Z" fill="#282D33"/>
<path d="M10.8221 16.2465H6.43633V17.0277H10.8221V16.2465Z" fill="#282D33"/>
</g>
<defs>
<clipPath id="clip0_18_29">
<rect width="25" height="25" fill="white"/>
</clipPath>
</defs>
</svg>
