<svg width="25" height="25" viewBox="0 0 25 25" fill="none" xmlns="http://www.w3.org/2000/svg">
<path d="M16.2004 2.35723H15.4191V0.848633C15.4191 0.811523 15.3859 0.78125 15.3451 0.78125H9.65526C9.61444 0.78125 9.58124 0.811523 9.58124 0.848633V2.35723H8.79999V0.848633C8.79999 0.380664 9.18378 0 9.65526 0H15.3453C15.8168 0 16.2006 0.380664 16.2006 0.848633V2.35723H16.2004Z" fill="#282D33"/>
<path d="M20.5959 25H4.4041C3.56074 25 2.8746 24.3211 2.8746 23.4867V7.21114H3.65585V23.4867C3.65585 23.8902 3.9916 24.2188 4.4041 24.2188H20.5959C21.0082 24.2188 21.3437 23.8902 21.3437 23.4867V7.21114H22.125V23.4867C22.125 24.3211 21.4392 25 20.5959 25Z" fill="#282D33"/>
<path d="M22.7976 5.73047H2.20233L2.20311 3.85313C2.20311 3.01895 2.85721 2.34004 3.66112 2.34004H21.34C22.1437 2.34004 22.7976 3.01895 22.7976 3.85332V5.73047V5.73047ZM2.98397 4.94922H22.0162V3.85332C22.0162 3.44961 21.7127 3.12129 21.3398 3.12129H3.66112C3.28807 3.12129 2.98436 3.44961 2.98436 3.85332L2.98397 4.94922Z" fill="#282D33"/>
<path d="M6.86169 7.21114H6.08044V22.44H6.86169V7.21114Z" fill="#282D33"/>
<path d="M9.8111 7.21114H9.02985V22.44H9.8111V7.21114Z" fill="#282D33"/>
<path d="M12.7609 7.21114H11.9797V22.44H12.7609V7.21114Z" fill="#282D33"/>
<path d="M15.7105 7.21114H14.9293V22.44H15.7105V7.21114Z" fill="#282D33"/>
<path d="M18.6601 7.21114H17.8789V22.44H18.6601V7.21114Z" fill="#282D33"/>
</svg>
