<?xml version="1.0" encoding="utf-8"?>
<!-- Generator: Adobe Illustrator 16.0.0, SVG Export Plug-In . SVG Version: 6.00 Build 0)  -->
<!DOCTYPE svg PUBLIC "-//W3C//DTD SVG 1.1//EN" "http://www.w3.org/Graphics/SVG/1.1/DTD/svg11.dtd">
<svg version="1.1" id="Слой_1" xmlns="http://www.w3.org/2000/svg" xmlns:xlink="http://www.w3.org/1999/xlink" x="0px" y="0px"
	 width="512px" height="512px" viewBox="0 0 512 512" enable-background="new 0 0 512 512" xml:space="preserve">
<g id="snow_1">
	<g>
		<path fill="#CCD1D9" d="M351.997,10.68c-46.123,0-87.669,19.515-116.871,50.733c-15.64-18.016-38.718-29.406-64.451-29.406
			c-47.132,0-85.333,38.202-85.333,85.325c0,0.719,0.008,1.422,0.031,2.141c-48.702,9.875-85.365,52.92-85.365,104.528
			c0,58.904,47.757,106.668,106.669,106.668h245.32c88.372,0,159.995-71.638,159.995-159.995
			C511.992,82.302,440.369,10.68,351.997,10.68z"/>
	</g>
	<g>
		<path fill="#AAB2BC" d="M453.962,47.366c22.922,27.687,36.703,63.217,36.703,101.966c0,88.372-71.638,159.995-159.995,159.995
			H85.342c-24.016,0-46.171-7.937-63.998-21.327c19.46,25.905,50.436,42.67,85.333,42.67h245.32
			c88.372,0,159.995-71.638,159.995-159.995C511.992,121.051,489.415,76.725,453.962,47.366z"/>
	</g>
	<path fill="#E6E9ED" d="M192.01,426.667c0,5.891-4.781,10.656-10.672,10.656c-5.89,0-10.663-4.766-10.663-10.656
		s4.773-10.672,10.663-10.672C187.229,415.995,192.01,420.776,192.01,426.667z"/>
	<path fill="#CCD1D9" d="M256.008,426.667c0,5.891-4.781,10.656-10.672,10.656c-5.89,0-10.663-4.766-10.663-10.656
		s4.773-10.672,10.663-10.672C251.227,415.995,256.008,420.776,256.008,426.667z"/>
	<path fill="#E6E9ED" d="M287.999,362.668c0,5.891-4.781,10.656-10.655,10.656c-5.898,0-10.672-4.766-10.672-10.656
		c0-5.89,4.773-10.671,10.672-10.671C283.218,351.997,287.999,356.778,287.999,362.668z"/>
	<path fill="#CCD1D9" d="M223.899,362.668c0,5.891-4.78,10.656-10.671,10.656s-10.664-4.766-10.664-10.656
		c0-5.89,4.773-10.671,10.664-10.671S223.899,356.778,223.899,362.668z"/>
	<path fill="#CCD1D9" d="M160.011,490.664c0,5.891-4.78,10.656-10.671,10.656s-10.664-4.766-10.664-10.656
		s4.773-10.672,10.664-10.672S160.011,484.773,160.011,490.664z"/>
	<path fill="#CCD1D9" d="M128.113,426.667c0,5.891-4.773,10.656-10.663,10.656c-5.891,0-10.664-4.766-10.664-10.656
		s4.773-10.672,10.664-10.672C123.34,415.995,128.113,420.776,128.113,426.667z"/>
	<path fill="#E6E9ED" d="M160.011,362.668c0,5.891-4.78,10.656-10.671,10.656s-10.664-4.766-10.664-10.656
		c0-5.89,4.773-10.671,10.664-10.671S160.011,356.778,160.011,362.668z"/>
	<path fill="#E6E9ED" d="M96.115,490.664c0,5.891-4.773,10.656-10.664,10.656s-10.664-4.766-10.664-10.656
		s4.773-10.672,10.664-10.672S96.115,484.773,96.115,490.664z"/>
	<path fill="#E6E9ED" d="M224.009,490.664c0,5.891-4.78,10.656-10.671,10.656s-10.664-4.766-10.664-10.656
		s4.773-10.672,10.664-10.672S224.009,484.773,224.009,490.664z"/>
	<path fill="#E6E9ED" d="M319.999,426.667c0,5.891-4.781,10.656-10.656,10.656c-5.906,0-10.672-4.766-10.672-10.656
		s4.766-10.672,10.672-10.672C315.218,415.995,319.999,420.776,319.999,426.667z"/>
	<path fill="#CCD1D9" d="M351.997,362.668c0,5.891-4.781,10.656-10.656,10.656c-5.905,0-10.671-4.766-10.671-10.656
		c0-5.89,4.766-10.671,10.671-10.671C347.216,351.997,351.997,356.778,351.997,362.668z"/>
	<path fill="#CCD1D9" d="M287.999,490.664c0,5.891-4.781,10.656-10.655,10.656c-5.898,0-10.672-4.766-10.672-10.656
		s4.773-10.672,10.672-10.672C283.218,479.992,287.999,484.773,287.999,490.664z"/>
</g>
</svg>
