<svg width="25" height="25" viewBox="0 0 25 25" fill="none" xmlns="http://www.w3.org/2000/svg">
<path d="M16.3221 4.57989C16.2065 4.53672 16.0898 4.4959 15.9721 4.45664L16.2203 3.71211C16.3465 3.7541 16.4711 3.79785 16.5953 3.84395L16.3221 4.57989Z" fill="#282D33"/>
<path d="M23.0092 13.3129C22.9889 13.0721 22.9598 12.8295 22.9227 12.5924L23.6979 12.4709C23.7379 12.7264 23.7693 12.9877 23.7914 13.2473L23.0092 13.3129ZM22.784 11.8799C22.7297 11.6445 22.666 11.4088 22.5947 11.1795L23.3447 10.9475C23.4213 11.1949 23.4899 11.449 23.5484 11.7027L22.784 11.8799ZM22.3561 10.4939C22.2692 10.2707 22.1723 10.0467 22.0682 9.82832L22.7772 9.49121C22.8889 9.72676 22.9934 9.96816 23.0871 10.2094L22.3561 10.4939ZM21.733 9.18379C21.6151 8.975 21.4871 8.7668 21.3535 8.56543L22.0074 8.13125C22.1514 8.34824 22.2889 8.57246 22.4164 8.79766L21.733 9.18379ZM20.9309 7.97461C20.7836 7.7834 20.6277 7.59551 20.4676 7.41562L21.0539 6.89375C21.2262 7.0875 21.394 7.29004 21.5526 7.4957L20.9309 7.97461ZM19.9658 6.88984C19.7928 6.7209 19.6121 6.55625 19.4287 6.40039L19.9369 5.80215C20.134 5.96973 20.3283 6.14668 20.5143 6.32813L19.9658 6.88984ZM18.859 5.95C18.6647 5.80703 18.4629 5.66914 18.259 5.54004L18.6785 4.87676C18.8977 5.01543 19.1149 5.16387 19.3238 5.31758L18.859 5.95ZM17.6315 5.17285C17.4186 5.0582 17.1996 4.94961 16.9803 4.85078L17.3035 4.13574C17.5395 4.24238 17.775 4.35898 18.0039 4.48203L17.6315 5.17285Z" fill="#282D33"/>
<path d="M23.8305 14.1756H23.0455C23.0455 14.0514 23.0432 13.9277 23.0391 13.8049L23.8234 13.7775C23.8281 13.9098 23.8305 14.0422 23.8305 14.1756Z" fill="#282D33"/>
<path d="M12.4992 25C6.25215 25 1.16953 19.9801 1.16953 13.8094C1.16953 7.63945 6.25196 2.62012 12.4994 2.62012V3.40488C6.68477 3.40488 1.95449 8.07227 1.95449 13.8094C1.95449 19.5471 6.68477 24.2152 12.4992 24.2152C18.3139 24.2152 23.0445 19.5471 23.0445 13.8094H23.8295C23.8295 19.9801 18.7467 25 12.4992 25Z" fill="#282D33"/>
<path d="M9.78301 6.55527L9.23184 5.99668L11.9863 3.27793L9.23184 0.558398L9.78321 0L13.1035 3.27793L9.78301 6.55527Z" fill="#282D33"/>
</svg>
