<svg width="25" height="25" viewBox="0 0 25 25" fill="none" xmlns="http://www.w3.org/2000/svg">
<path d="M4.31201 8.20763L3.70396 7.71214L0.633187 11.4805L1.24123 11.976L4.31201 8.20763Z" fill="#282D33"/>
<path d="M24.3674 11.4802L21.259 7.6657L20.6508 8.16132L23.7592 11.9758L24.3674 11.4802Z" fill="#282D33"/>
<path d="M24.3695 24.9574H0.630463V11.442H1.41484V24.173H23.5852V11.442H24.3695V24.9574Z" fill="#282D33"/>
<path d="M8.23653 18.7828L7.70979 18.2019L0.853196 24.4189L1.37993 24.9998L8.23653 18.7828Z" fill="#282D33"/>
<path d="M24.1468 24.4186L17.2895 18.2026L16.7628 18.7836L23.6202 24.9996L24.1468 24.4186Z" fill="#282D33"/>
<path d="M17.1488 18.683H7.85137L3.73242 14.4729V0H21.268V14.4729L17.1488 18.683ZM8.18145 17.8988H16.8191L20.484 14.1529V0.78457H4.5168V14.1529L8.18145 17.8988Z" fill="#282D33"/>
<path d="M12.607 14.065C10.0557 14.065 7.98047 12.0047 7.98047 9.47207C7.98047 6.94004 10.0559 4.87988 12.607 4.87988C13.9992 4.87988 15.3037 5.49297 16.1859 6.56191L15.5811 7.06152C14.848 6.17344 13.7641 5.66445 12.6068 5.66445C10.4881 5.66445 8.76445 7.37246 8.76445 9.47207C8.76445 11.5721 10.4881 13.2807 12.6068 13.2807C13.4521 13.2807 14.2535 13.0143 14.924 12.5104L15.3951 13.1377C14.5877 13.7441 13.6236 14.065 12.607 14.065Z" fill="#282D33"/>
<path d="M11.8424 11.7283C11.8422 11.7283 11.8424 11.7283 11.8424 11.7283C11.6609 11.7283 11.4689 11.6998 11.2717 11.6436C10.6777 11.4738 10.2287 10.9807 10.0709 10.3244C9.858 9.44082 10.1869 8.46191 10.9287 7.76992C11.5781 7.16484 12.4633 7.03789 13.092 7.03789C13.6187 7.03789 14.0127 7.12558 14.0291 7.12949L14.442 7.22285L14.3178 7.62734C14.2863 7.7289 13.5506 10.1217 13.4197 10.4953C13.1486 11.2672 12.559 11.7283 11.8424 11.7283ZM13.0918 7.82246C12.6041 7.82246 11.9258 7.91289 11.4633 8.34375C10.8236 8.94062 10.7184 9.66347 10.8332 10.1408C10.9256 10.5242 11.1637 10.7971 11.4869 10.8893C11.6139 10.9256 11.7336 10.9439 11.8422 10.9439C12.3285 10.9439 12.5658 10.5586 12.6791 10.2353C12.7723 9.9705 13.207 8.56562 13.432 7.83652C13.3309 7.82832 13.2156 7.82246 13.0918 7.82246Z" fill="#282D33"/>
<path d="M14.3918 11.6869C13.9926 11.6869 13.6232 11.5506 13.3293 11.2852C12.7219 10.7371 13.14 8.88379 13.4433 7.82793L14.1971 8.04434C13.8611 9.21543 13.7017 10.4865 13.8625 10.7109C14.1533 10.9723 14.5246 10.9215 14.7828 10.8314C15.375 10.6254 16.0535 9.94707 16.2053 9.04824C16.3148 8.39863 16.1861 7.41895 14.9508 6.44199L15.4371 5.82676C17.0547 7.10606 17.0973 8.47598 16.9787 9.17891C16.7971 10.2543 16.0002 11.2385 15.0406 11.5725C14.8203 11.6492 14.6019 11.6869 14.3918 11.6869Z" fill="#282D33"/>
<path d="M16.8805 18.683H8.11972L0.926361 11.751L1.4705 11.1861L8.43613 17.8988H16.5641L23.5297 11.1861L24.074 11.751L16.8805 18.683Z" fill="#282D33"/>
</svg>
