<svg width="25" height="25" viewBox="0 0 25 25" fill="none" xmlns="http://www.w3.org/2000/svg">
<g clip-path="url(#clip0_105_2)">
<path d="M22.2311 10.0283L21.4498 10.0281L21.45 9.08086L19.1816 8.89062L19.1266 8.59883C18.9742 7.79394 18.6818 7.03203 18.2572 6.33418L18.1115 6.09433L19.6189 4.30215L18.2721 2.94707L16.5354 4.42558L16.2889 4.25703C15.6174 3.79765 14.8754 3.46757 14.0836 3.27578L13.8096 3.20937L13.6152 0.869919H11.7127L11.5236 3.15156L11.2322 3.20742C10.4314 3.36074 9.6748 3.65468 8.98281 4.08105L8.74102 4.23008L6.96055 2.71406L5.61328 4.06894L7.0834 5.81679L6.91816 6.06113C6.46074 6.73789 6.13223 7.48476 5.94199 8.28086L5.87637 8.55566L3.5502 8.75097L3.5498 9.69863L2.76855 9.69824L2.76934 8.03261L5.25332 7.82402C5.44551 7.13437 5.73262 6.48008 6.10957 5.87265L4.55527 4.0248L6.9166 1.65039L8.81934 3.2705C9.43809 2.9209 10.1 2.66328 10.7936 2.50175L10.9934 0.0886688H14.3342L14.5418 2.58867C15.227 2.78203 15.8762 3.07011 16.4785 3.44785L18.316 1.88359L20.6766 4.2584L19.067 6.17207C19.4154 6.79629 19.6725 7.46308 19.8328 8.16133L22.2316 8.3625L22.2311 10.0283Z" fill="#282D33"/>
<path d="M15.799 9.87539H15.0178C15.0178 8.47773 13.8885 7.34082 12.5002 7.34082C11.1121 7.34082 9.98281 8.47773 9.98281 9.87539H9.20156C9.20156 8.04707 10.6814 6.55957 12.5002 6.55957C14.3189 6.55957 15.799 8.04707 15.799 9.87539Z" fill="#282D33"/>
<path d="M22.4869 13.6096H2.38086V14.3908H22.4869V13.6096Z" fill="#282D33"/>
<path d="M1.19063 13.6096H0V14.3908H1.19063V13.6096Z" fill="#282D33"/>
<path d="M25 13.6096H23.8098V14.3908H25V13.6096Z" fill="#282D33"/>
<path d="M5.28496 12.5367H4.50371V15.4637H5.28496V12.5367Z" fill="#282D33"/>
<path d="M22.4869 18.3332H2.38086V19.1144H22.4869V18.3332Z" fill="#282D33"/>
<path d="M1.19063 18.3332H0V19.1144H1.19063V18.3332Z" fill="#282D33"/>
<path d="M25 18.3332H23.8098V19.1144H25V18.3332Z" fill="#282D33"/>
<path d="M19.1078 17.2603H18.3266V20.1875H19.1078V17.2603Z" fill="#282D33"/>
<path d="M22.4869 23.057H2.38086V23.8383H22.4869V23.057Z" fill="#282D33"/>
<path d="M1.19063 23.057H0V23.8383H1.19063V23.057Z" fill="#282D33"/>
<path d="M25 23.057H23.8098V23.8383H25V23.057Z" fill="#282D33"/>
<path d="M11.1049 21.984H10.3236V24.9113H11.1049V21.984Z" fill="#282D33"/>
</g>
<defs>
<clipPath id="clip0_105_2">
<rect width="25" height="25" fill="white"/>
</clipPath>
</defs>
</svg>
