<svg width="25" height="25" viewBox="0 0 25 25" fill="none" xmlns="http://www.w3.org/2000/svg">
<path d="M12.5 25C5.66953 25 0.1125 19.3926 0.1125 12.5C0.1125 5.60742 5.66953 0 12.5 0C19.3305 0 24.8875 5.60742 24.8875 12.5H24.1063C24.1063 6.03828 18.8998 0.78125 12.5 0.78125C6.1002 0.78125 0.89375 6.03828 0.89375 12.5C0.89375 18.9617 6.1002 24.2188 12.5 24.2188V25Z" fill="#282D33"/>
<path d="M24.8813 12.8941L24.1004 12.8682C24.1045 12.7459 24.1063 12.623 24.1063 12.5H24.8875C24.8875 12.6318 24.8855 12.7631 24.8813 12.8941Z" fill="#282D33"/>
<path d="M13.2986 24.9744L13.2486 24.1947C13.5018 24.1785 13.7572 24.1535 14.0074 24.1207L14.109 24.8955C13.8416 24.9305 13.5691 24.957 13.2986 24.9744ZM14.9336 24.7586L14.7803 23.9926C15.0342 23.9416 15.2902 23.8811 15.5416 23.8123L15.748 24.5656C15.4793 24.6393 15.2053 24.7041 14.9336 24.7586ZM16.5469 24.3174L16.2898 23.5797C16.5354 23.4941 16.7811 23.399 17.0195 23.2973L17.3262 24.0156C17.0713 24.1244 16.8092 24.226 16.5469 24.3174ZM18.0832 23.6613L17.7285 22.9652C17.9594 22.8475 18.1896 22.7199 18.4135 22.5861L18.8148 23.2565C18.576 23.3992 18.3299 23.5354 18.0832 23.6613ZM19.517 22.8024L19.0711 22.1607C19.284 22.0129 19.4953 21.8555 19.6994 21.6924L20.1869 22.3027C19.9693 22.4764 19.7439 22.6445 19.517 22.8024ZM20.8223 21.7588L20.2947 21.1828C20.4865 21.0072 20.675 20.8225 20.8547 20.6342L21.4197 21.174C21.2281 21.3746 21.027 21.5715 20.8223 21.7588ZM21.9766 20.5506L21.3773 20.0494C21.5436 19.8508 21.7057 19.643 21.8596 19.4315L22.4912 19.8912C22.3268 20.1166 22.1539 20.3385 21.9766 20.5506ZM22.9604 19.1988L22.2996 18.7822C22.4383 18.5621 22.5715 18.3344 22.6951 18.1051L23.3826 18.4766C23.2504 18.7213 23.1082 18.9643 22.9604 19.1988ZM23.7557 17.7274L23.0449 17.4031C23.1535 17.1648 23.2551 16.9211 23.3467 16.6789L24.0775 16.9551C23.9797 17.2137 23.8715 17.4734 23.7557 17.7274ZM24.3473 16.1627L23.5996 15.9361C23.6752 15.6869 23.7432 15.4322 23.802 15.1789L24.5629 15.3551C24.5004 15.6254 24.4277 15.8971 24.3473 16.1627ZM24.7244 14.5348L23.9531 14.41C23.9949 14.1529 24.0285 13.8912 24.0531 13.6322L24.8309 13.7063C24.8045 13.9822 24.7686 14.2609 24.7244 14.5348Z" fill="#282D33"/>
<path d="M12.5 25V24.2188C12.6238 24.2188 12.7475 24.2164 12.8703 24.2133L12.8916 24.9941C12.7615 24.9977 12.6311 25 12.5 25Z" fill="#282D33"/>
<path d="M10.4533 18.4836L5.77813 13.7029L8.67148 10.7809L10.4824 12.6088L16.5168 6.51797L19.4127 9.44179L10.4533 18.4836ZM6.87422 13.7064L10.4568 17.3701L18.3131 9.44179L16.517 7.62812L10.4826 13.7187L8.67188 11.891L6.87422 13.7064Z" fill="#282D33"/>
</svg>
