<svg width="25" height="25" viewBox="0 0 25 25" fill="none" xmlns="http://www.w3.org/2000/svg">
<g clip-path="url(#clip0_10_178)">
<path d="M13.8016 7.6707L19.1211 12.5L13.8016 17.3291V14.5529H6.06953V10.4467H13.8016L13.8016 7.6707ZM17.9588 12.5L14.5828 9.43515V11.2279H6.85078V13.7717H14.5828V15.5646L17.9588 12.5Z" fill="#282D33"/>
<path d="M12.5 -8.34465e-07C19.3307 -8.34465e-07 24.8877 5.60742 24.8877 12.4998C24.8877 19.3924 19.3307 25 12.5 25C5.66934 25 0.112306 19.3924 0.112306 12.4998H0.893556C0.893556 18.9615 6.1002 24.2187 12.5 24.2187C18.8998 24.2187 24.1064 18.9615 24.1064 12.4998C24.1064 6.03808 18.8998 0.781249 12.5 0.781249V-8.34465e-07Z" fill="#282D33"/>
<path d="M0.118358 12.1059L0.899216 12.1318C0.895114 12.2541 0.893552 12.377 0.893552 12.4998H0.112302C0.112302 12.3682 0.114061 12.2369 0.118358 12.1059Z" fill="#282D33"/>
<path d="M11.7014 0.0255853L11.7514 0.805274C11.4982 0.821485 11.2428 0.846484 10.9926 0.879297L10.891 0.104493C11.1584 0.069532 11.4309 0.0429681 11.7014 0.0255853ZM10.0662 0.241406L10.2195 1.00742C9.96563 1.0584 9.70958 1.11895 9.45821 1.1877L9.25176 0.434375C9.52051 0.360742 9.79454 0.295898 10.0662 0.241406ZM8.45313 0.682618L8.71016 1.42031C8.46446 1.50586 8.21895 1.60117 7.98067 1.70273L7.67403 0.984375C7.92852 0.875586 8.19083 0.774219 8.45313 0.682618ZM6.917 1.33867L7.27169 2.03477C7.04083 2.15254 6.81055 2.28008 6.58673 2.41387L6.18536 1.74355C6.42423 1.60059 6.67032 1.46445 6.917 1.33867ZM5.48301 2.19727L5.92891 2.83887C5.71602 2.98672 5.50469 3.14414 5.30059 3.30723L4.81309 2.69687C5.03067 2.52324 5.25606 2.35508 5.48301 2.19727ZM4.17794 3.24082L4.70548 3.8168C4.51368 3.99238 4.3252 4.17715 4.14551 4.36543L3.58048 3.82559C3.77208 3.625 3.97325 3.42813 4.17794 3.24082ZM3.02325 4.44922L3.62286 4.95C3.45548 5.15039 3.29317 5.3584 3.14044 5.56816L2.5088 5.1084C2.67188 4.88496 2.84473 4.66309 3.02325 4.44922ZM2.03966 5.80098L2.7004 6.21758C2.56173 6.43769 2.42852 6.66543 2.30489 6.89473L1.61739 6.52324C1.74962 6.27852 1.8918 6.03555 2.03966 5.80098ZM1.24454 7.27168L1.95528 7.59629C1.84669 7.83359 1.74532 8.07734 1.65333 8.32031L0.922468 8.04414C1.02071 7.78476 1.12891 7.5248 1.24454 7.27168ZM0.652742 8.83672L1.4004 9.06328C1.32481 9.3125 1.25684 9.56719 1.19805 9.82051L0.437117 9.64433C0.499617 9.37402 0.572274 9.10234 0.652742 8.83672ZM0.275594 10.4646L1.04688 10.5898C1.00509 10.8465 0.971492 11.1082 0.946882 11.3672L0.169148 11.2932C0.195515 11.017 0.231453 10.7383 0.275594 10.4646Z" fill="#282D33"/>
<path d="M12.5 -8.00285e-07V0.781249C12.377 0.781249 12.2535 0.783202 12.1309 0.786718L12.1072 0.00585834C12.2379 0.00195209 12.3689 -8.00285e-07 12.5 -8.00285e-07Z" fill="#282D33"/>
</g>
<defs>
<clipPath id="clip0_10_178">
<rect width="25" height="25" fill="white" transform="translate(25 25) rotate(-180)"/>
</clipPath>
</defs>
</svg>
