<?xml version="1.0" encoding="utf-8"?>
<!-- Generator: Adobe Illustrator 16.0.0, SVG Export Plug-In . SVG Version: 6.00 Build 0)  -->
<!DOCTYPE svg PUBLIC "-//W3C//DTD SVG 1.1//EN" "http://www.w3.org/Graphics/SVG/1.1/DTD/svg11.dtd">
<svg version="1.1" id="Слой_1" xmlns="http://www.w3.org/2000/svg" xmlns:xlink="http://www.w3.org/1999/xlink" x="0px" y="0px"
	 width="512px" height="512px" viewBox="0 0 512 512" enable-background="new 0 0 512 512" xml:space="preserve">
<g id="drought">
	<path fill="#E8563F" d="M32.008,319.998c0,5.89-4.781,10.671-10.672,10.671s-10.672-4.781-10.672-10.671
		c0-5.891,4.781-10.672,10.672-10.672S32.008,314.107,32.008,319.998z"/>
	<path fill="#E8563F" d="M74.662,319.998c0,5.89-4.766,10.671-10.656,10.671c-5.89,0-10.671-4.781-10.671-10.671
		c0-5.891,4.781-10.672,10.671-10.672C69.896,309.326,74.662,314.107,74.662,319.998z"/>
	<path fill="#E8563F" d="M117.333,319.998c0,5.89-4.781,10.671-10.672,10.671s-10.655-4.781-10.655-10.671
		c0-5.891,4.765-10.672,10.655-10.672S117.333,314.107,117.333,319.998z"/>
	<path fill="#E8563F" d="M160.003,319.998c0,5.89-4.78,10.671-10.671,10.671s-10.672-4.781-10.672-10.671
		c0-5.891,4.781-10.672,10.672-10.672S160.003,314.107,160.003,319.998z"/>
	<path fill="#E8563F" d="M202.658,319.998c0,5.89-4.766,10.671-10.656,10.671s-10.672-4.781-10.672-10.671
		c0-5.891,4.781-10.672,10.672-10.672S202.658,314.107,202.658,319.998z"/>
	<path fill="#E8563F" d="M245.328,319.998c0,5.89-4.781,10.671-10.671,10.671c-5.891,0-10.656-4.781-10.656-10.671
		c0-5.891,4.766-10.672,10.656-10.672C240.547,309.326,245.328,314.107,245.328,319.998z"/>
	<path fill="#E8563F" d="M287.999,319.998c0,5.89-4.781,10.671-10.671,10.671c-5.891,0-10.672-4.781-10.672-10.671
		c0-5.891,4.781-10.672,10.672-10.672C283.218,309.326,287.999,314.107,287.999,319.998z"/>
	<path fill="#E8563F" d="M330.654,319.998c0,5.89-4.766,10.671-10.655,10.671c-5.891,0-10.672-4.781-10.672-10.671
		c0-5.891,4.781-10.672,10.672-10.672C325.889,309.326,330.654,314.107,330.654,319.998z"/>
	<path fill="#E8563F" d="M373.324,319.998c0,5.89-4.781,10.671-10.672,10.671c-5.89,0-10.655-4.781-10.655-10.671
		c0-5.891,4.766-10.672,10.655-10.672C368.543,309.326,373.324,314.107,373.324,319.998z"/>
	<path fill="#E8563F" d="M415.996,319.998c0,5.89-4.781,10.671-10.672,10.671s-10.672-4.781-10.672-10.671
		c0-5.891,4.781-10.672,10.672-10.672S415.996,314.107,415.996,319.998z"/>
	<path fill="#E8563F" d="M458.649,319.998c0,5.89-4.766,10.671-10.656,10.671c-5.89,0-10.67-4.781-10.67-10.671
		c0-5.891,4.78-10.672,10.67-10.672C453.884,309.326,458.649,314.107,458.649,319.998z"/>
	<path fill="#E8563F" d="M501.32,319.998c0,5.89-4.78,10.671-10.671,10.671s-10.656-4.781-10.656-10.671
		c0-5.891,4.766-10.672,10.656-10.672S501.32,314.107,501.32,319.998z"/>
	<g>
		<rect x="0.008" y="319.998" fill="#FB6D51" width="511.984" height="191.994"/>
	</g>
	<g>
		<g>
			<path fill="#F6BB42" d="M256,42.678c-5.891,0-10.672-4.781-10.672-10.671V10.68c0-5.891,4.781-10.672,10.672-10.672
				s10.656,4.781,10.656,10.672v21.327C266.656,37.897,261.891,42.678,256,42.678z"/>
		</g>
	</g>
	<g>
		<g>
			<path fill="#F6BB42" d="M256,277.327c-5.891,0-10.672-4.765-10.672-10.655v-21.344c0-5.891,4.781-10.656,10.672-10.656
				s10.656,4.765,10.656,10.656v21.344C266.656,272.563,261.891,277.327,256,277.327z"/>
		</g>
	</g>
	<g>
		<g>
			<path fill="#FFCE54" d="M188.111,70.787c-4.156,4.172-10.921,4.172-15.077,0l-15.093-15.078c-4.156-4.172-4.156-10.922,0-15.094
				c4.171-4.156,10.921-4.156,15.093,0l15.077,15.094C192.283,59.866,192.283,66.631,188.111,70.787z"/>
		</g>
	</g>
	<g>
		<g>
			<path fill="#FFCE54" d="M354.044,236.719c-4.172,4.171-10.922,4.171-15.077,0l-15.094-15.077c-4.155-4.172-4.155-10.922,0-15.094
				c4.172-4.156,10.922-4.156,15.094,0l15.077,15.094C358.216,225.798,358.216,232.547,354.044,236.719z"/>
		</g>
	</g>
	<g>
		<g>
			<path fill="#F6BB42" d="M160.003,138.676c0,5.891-4.78,10.656-10.671,10.656h-21.328c-5.891,0-10.671-4.765-10.671-10.656
				s4.78-10.672,10.671-10.672h21.328C155.223,128.004,160.003,132.785,160.003,138.676z"/>
		</g>
	</g>
	<g>
		<g>
			<path fill="#F6BB42" d="M394.652,138.676c0,5.891-4.766,10.656-10.656,10.656h-21.344c-5.89,0-10.655-4.765-10.655-10.656
				s4.766-10.672,10.655-10.672h21.344C389.887,128.004,394.652,132.785,394.652,138.676z"/>
		</g>
	</g>
	<g>
		<g>
			<path fill="#FFCE54" d="M188.111,206.548c4.172,4.172,4.172,10.922,0,15.078l-15.077,15.093c-4.172,4.171-10.922,4.171-15.093,0
				c-4.156-4.172-4.156-10.921,0-15.093l15.093-15.078C177.19,202.376,183.955,202.376,188.111,206.548z"/>
		</g>
	</g>
	<g>
		<g>
			<path fill="#FFCE54" d="M354.044,40.616c4.172,4.172,4.172,10.922,0,15.094l-15.077,15.078c-4.172,4.172-10.922,4.172-15.094,0
				c-4.155-4.156-4.155-10.921,0-15.078l15.094-15.094C343.122,36.46,349.888,36.46,354.044,40.616z"/>
		</g>
	</g>
	<path fill="#FFCE54" d="M256,213.33c-41.17,0-74.67-33.483-74.67-74.654c0-41.171,33.5-74.669,74.67-74.669
		c41.171,0,74.654,33.499,74.654,74.669C330.654,179.846,297.171,213.33,256,213.33z"/>
	<path fill="#F6BB42" d="M256,53.334c-47.139,0-85.341,38.202-85.341,85.341c0,47.124,38.202,85.325,85.341,85.325
		c47.124,0,85.325-38.202,85.325-85.325C341.325,91.537,303.124,53.334,256,53.334z M256,202.673
		c-35.296,0-63.998-28.718-63.998-63.998c0-35.296,28.702-63.998,63.998-63.998c35.28,0,63.999,28.702,63.999,63.998
		C319.999,173.956,291.28,202.673,256,202.673z"/>
	<g>
		<path fill="#E8563F" d="M74.678,405.323c-3.156,0-6.266-1.391-8.375-4.047c-3.656-4.625-2.875-11.328,1.75-14.984l27-21.327
			c4.624-3.655,11.327-2.875,14.983,1.75s2.859,11.328-1.75,14.984l-26.999,21.327C79.318,404.573,76.99,405.323,74.678,405.323z"/>
	</g>
	<g>
		<path fill="#E8563F" d="M117.333,447.994c-1.125,0-2.266-0.172-3.375-0.547c-5.594-1.875-8.609-7.905-6.734-13.499l8.906-26.688
			l-60.654-80.857c-3.547-4.718-2.594-11.405,2.125-14.937c4.718-3.531,11.405-2.578,14.937,2.125l64.014,85.341
			c2.109,2.797,2.703,6.453,1.594,9.781l-10.688,32C125.957,445.166,121.801,447.994,117.333,447.994z"/>
	</g>
	<g>
		<path fill="#E8563F" d="M287.983,405.323c-1.906,0-3.859-0.516-5.594-1.594l-43.826-27.093c-5-3.109-6.563-9.672-3.453-14.687
			c3.094-5.016,9.671-6.563,14.671-3.453l43.827,27.092c5,3.094,6.563,9.672,3.453,14.688
			C295.046,403.542,291.562,405.323,287.983,405.323z"/>
	</g>
	<g>
		<path fill="#E8563F" d="M415.996,469.32c-0.719,0-1.469-0.063-2.203-0.219c-5.766-1.219-9.453-6.875-8.234-12.64l9.469-44.873
			l-35.531-17.344c-4.781-2.328-7.109-7.844-5.453-12.89l21.141-64.67c1.828-5.609,7.859-8.656,13.453-6.828
			c5.609,1.828,8.656,7.859,6.828,13.453l-18.266,55.842l34.671,16.921c4.391,2.156,6.75,7,5.75,11.797l-11.188,52.998
			C425.37,465.883,420.933,469.32,415.996,469.32z"/>
	</g>
	<g>
		<path fill="#E8563F" d="M224.001,469.32c-2.734,0-5.468-1.031-7.546-3.125c-4.172-4.156-4.172-10.905,0-15.076l27.967-27.968
			l-20.218-101.06c-1.156-5.781,2.594-11.391,8.359-12.547c5.781-1.156,11.405,2.578,12.562,8.359l21.328,106.669
			c0.703,3.5-0.391,7.109-2.922,9.625l-31.999,31.997C229.454,468.289,226.72,469.32,224.001,469.32z"/>
	</g>
</g>
</svg>
