<svg width="25" height="25" viewBox="0 0 25 25" fill="none" xmlns="http://www.w3.org/2000/svg">
<g clip-path="url(#clip0_110_2)">
<path d="M17.8607 24.9268H7.13946C6.50313 24.9268 5.98555 24.4098 5.98555 23.774V1.22559C5.98555 0.590234 6.50313 0.0732422 7.13946 0.0732422H17.8605C18.4969 0.0732422 19.0145 0.590234 19.0145 1.22559V23.7738C19.0147 24.0814 18.8947 24.3713 18.6764 24.5893C18.4584 24.807 18.1688 24.9268 17.8607 24.9268ZM7.13946 0.85C6.93145 0.85 6.76211 1.01855 6.76211 1.22578V23.774C6.76211 23.9814 6.93145 24.1502 7.13946 24.1502H17.8609C18.0688 24.1502 18.2381 23.9814 18.2381 23.774L18.2377 1.22559C18.2377 1.01836 18.0686 0.849805 17.8604 0.849805H7.13946V0.85Z" fill="#282D33"/>
<path d="M18.5311 20.2117H6.46895V20.9885H18.5311V20.2117Z" fill="#282D33"/>
<path d="M18.5311 3.57089H6.46895V4.34765H18.5311V3.57089Z" fill="#282D33"/>
<path d="M14.5467 1.78067H10.4533V2.55743H14.5467V1.78067Z" fill="#282D33"/>
<path d="M13 22.1568H12V22.9336H13V22.1568Z" fill="#282D33"/>
<path d="M25 12.1916H22.5004V12.9683H25V12.1916Z" fill="#282D33"/>
<path d="M24.0517 7.97505L23.724 7.27084L21.4585 8.3251L21.7863 9.02931L24.0517 7.97505Z" fill="#282D33"/>
<path d="M24.0519 17.1848L21.7862 16.1305L21.4585 16.8348L23.7242 17.8891L24.0519 17.1848Z" fill="#282D33"/>
<path d="M2.4998 12.1916H0V12.9683H2.4998V12.1916Z" fill="#282D33"/>
<path d="M3.54173 16.8339L3.21401 16.1294L0.948501 17.1834L1.27622 17.8878L3.54173 16.8339Z" fill="#282D33"/>
<path d="M3.54163 8.3257L1.27637 7.27153L0.948657 7.97574L3.21392 9.02991L3.54163 8.3257Z" fill="#282D33"/>
</g>
<defs>
<clipPath id="clip0_110_2">
<rect width="25" height="25" fill="white"/>
</clipPath>
</defs>
</svg>
