<svg width="25" height="25" viewBox="0 0 25 25" fill="none" xmlns="http://www.w3.org/2000/svg">
<g clip-path="url(#clip0_26_29)">
<path d="M4.41777 25C3.92773 25 3.43398 24.9146 2.95937 24.7393L2.39042 24.5289L4.98066 21.9137L4.6123 20.5268L3.24531 20.1566L0.650384 22.777L0.439837 22.1965C-0.125984 20.6367 0.258196 18.8717 1.41913 17.6998C2.47011 16.6381 3.98437 16.2146 5.41991 16.565L16.5914 5.28652C16.2432 3.83848 16.6621 2.31074 17.7127 1.2502C18.8754 0.0761725 20.6273 -0.312109 22.1758 0.260547L22.7449 0.470899L20.1545 3.08594L20.5228 4.47344L21.8904 4.84336L24.4851 2.22344L24.6955 2.80391C25.2611 4.36387 24.8768 6.12891 23.716 7.30039C22.665 8.36133 21.1512 8.78516 19.7154 8.43477L15.125 13.0688L14.5699 12.5191L19.4865 7.55566L19.7119 7.62422C20.9367 7.99688 22.2582 7.66211 23.1609 6.75059C23.9572 5.94668 24.3064 4.80039 24.125 3.69766L22.1254 5.71641L19.8834 5.11016L19.285 2.8541L21.2906 0.829297C20.1982 0.644922 19.0641 0.996094 18.2678 1.8002C17.3635 2.71328 17.0314 4.05059 17.4012 5.29043L17.4676 5.5125L5.64863 17.4445L5.42304 17.3758C4.19843 17.0029 2.87695 17.3375 1.97421 18.2494C1.17753 19.0537 0.828313 20.2 1.01015 21.3031L3.00995 19.284L5.25156 19.8902L5.85038 22.1455L3.84452 24.1705C4.93574 24.3551 6.07089 24.0035 6.86738 23.1994C7.77167 22.2867 8.1037 20.9492 7.73378 19.7088L7.66757 19.4869L11.8851 15.2291L12.4402 15.7787L8.54394 19.7129C8.89238 21.1615 8.47324 22.6893 7.42265 23.7494C6.6162 24.5637 5.52636 24.9998 4.41777 25Z" fill="#282D33"/>
<path d="M20.143 24.7266C19.8992 24.7266 19.6701 24.6307 19.498 24.4566L11.8451 16.7309C11.4926 16.3752 11.4926 15.7959 11.8451 15.4397L11.8482 15.4365L10.5066 14.082L13.5668 10.9928L14.9076 12.3471C15.0799 12.1746 15.3082 12.0799 15.551 12.0799C15.7945 12.0799 16.0236 12.1754 16.1957 12.3486L23.849 20.0752C24.2017 20.4309 24.2017 21.0102 23.8492 21.3664L20.7879 24.4564C20.616 24.6305 20.3867 24.7266 20.143 24.7266ZM11.6062 14.0822L12.4898 14.9742C12.5162 15.0008 12.5476 15.0219 12.5805 15.035L13.1289 15.2535L12.4004 15.9895C12.348 16.0424 12.3478 16.1285 12.4004 16.1813L20.0535 23.907C20.0847 23.9385 20.1195 23.9451 20.1431 23.9451C20.1668 23.9451 20.2015 23.9385 20.2326 23.9072L23.2941 20.8174C23.3465 20.7645 23.3465 20.6783 23.2941 20.6256L15.641 12.899C15.6101 12.868 15.575 12.8615 15.5512 12.8615C15.5271 12.8615 15.492 12.868 15.4609 12.8994L14.725 13.6428L14.5062 13.0832C14.4928 13.0488 14.4724 13.0182 14.4461 12.9916L13.5668 12.1037L11.6062 14.0822Z" fill="#282D33"/>
<path d="M12.6081 12.5575L3.51804 3.38228L2.9629 3.93226L12.0529 13.1075L12.6081 12.5575Z" fill="#282D33"/>
<path d="M3.77499 4.69687L1.79354 4.4918L0.0470581 1.72793L1.32772 0.434765L4.07128 2.20117L4.27382 4.19531L3.77499 4.69687ZM2.25116 3.75371L3.45624 3.87851L3.33202 2.65449L1.4371 1.43457L1.03964 1.83613L2.25116 3.75371Z" fill="#282D33"/>
<path d="M20.6195 21.9868L14.3012 15.6074L13.7461 16.1572L20.0644 22.5366L20.6195 21.9868Z" fill="#282D33"/>
<path d="M21.9477 20.6487L15.6288 14.2705L15.0738 14.8203L21.3927 21.1985L21.9477 20.6487Z" fill="#282D33"/>
<path d="M15.8727 12.5721L15.3176 12.0224L11.5148 15.863L12.07 16.4127L15.8727 12.5721Z" fill="#282D33"/>
</g>
<defs>
<clipPath id="clip0_26_29">
<rect width="25" height="25" fill="white"/>
</clipPath>
</defs>
</svg>
