<?xml version="1.0" encoding="utf-8"?>
<!-- Generator: Adobe Illustrator 16.0.0, SVG Export Plug-In . SVG Version: 6.00 Build 0)  -->
<!DOCTYPE svg PUBLIC "-//W3C//DTD SVG 1.1//EN" "http://www.w3.org/Graphics/SVG/1.1/DTD/svg11.dtd">
<svg version="1.1" id="Слой_1" xmlns="http://www.w3.org/2000/svg" xmlns:xlink="http://www.w3.org/1999/xlink" x="0px" y="0px"
	 width="512px" height="512px" viewBox="0 0 512 512" enable-background="new 0 0 512 512" xml:space="preserve">
<g id="fog_2">
	<path fill="#FFCE54" d="M224,373.324c-64.81,0-117.543-52.732-117.543-117.551S159.191,138.223,224,138.223
		c64.81,0,117.558,52.732,117.558,117.551S288.811,373.324,224,373.324z"/>
	<path fill="#F6BB42" d="M224,127.559c-70.81,0-128.214,57.405-128.214,128.215c0,70.817,57.404,128.222,128.214,128.222
		c70.81,0,128.214-57.404,128.214-128.222C352.215,184.963,294.811,127.559,224,127.559z M299.576,331.356
		c-20.186,20.188-47.029,31.296-75.576,31.296c-28.545,0-55.389-11.108-75.575-31.296c-20.187-20.187-31.312-47.029-31.312-75.583
		c0-28.546,11.125-55.389,31.312-75.576c20.187-20.187,47.03-31.304,75.575-31.304c28.546,0,55.39,11.117,75.576,31.304
		c20.188,20.187,31.297,47.029,31.297,75.576C330.873,284.327,319.764,311.17,299.576,331.356z"/>
	<g>
		<path fill="#CCD1D9" d="M42.678,256h149.324c5.891,0,10.671-4.781,10.671-10.672s-4.781-10.664-10.671-10.664H42.678
			c-5.89,0-10.671,4.773-10.671,10.664S36.788,256,42.678,256z"/>
		<path fill="#E6E9ED" d="M234.672,298.655H85.333c-5.89,0-10.656,4.781-10.656,10.671c0,5.891,4.766,10.672,10.656,10.672h149.339
			c5.89,0,10.656-4.781,10.656-10.672C245.328,303.437,240.563,298.655,234.672,298.655z"/>
		<path fill="#AAB2BC" d="M202.673,362.652H42.678c-5.89,0-10.671,4.781-10.671,10.672s4.781,10.671,10.671,10.671h159.995
			c5.891,0,10.656-4.78,10.656-10.671S208.564,362.652,202.673,362.652z"/>
	</g>
	<path fill="#F6BB42" d="M224,405.323c-5.89,0-10.655,4.781-10.655,10.672l-0.016,85.325c0,5.891,4.781,10.672,10.671,10.672
		c5.891,0,10.672-4.781,10.672-10.672v-85.325C234.672,410.104,229.891,405.323,224,405.323z"/>
	<path fill="#F6BB42" d="M224,106.669L224,106.669c5.891,0,10.672-4.773,10.672-10.672V10.672c0-5.891-4.781-10.664-10.672-10.664
		l0,0c-5.89,0-10.671,4.773-10.671,10.664v85.325C213.33,101.888,218.111,106.669,224,106.669z"/>
	<path fill="#FFCE54" d="M329.592,361.591c-4.156,4.155-4.156,10.921,0,15.077l60.342,60.343c4.156,4.172,10.906,4.172,15.078,0
		s4.172-10.922,0-15.078l-60.328-60.342C340.512,357.419,333.748,357.419,329.592,361.591z"/>
	<path fill="#FFCE54" d="M118.411,150.41c0-0.008,0,0,0-0.008c4.171-4.164,4.171-10.914,0-15.078L58.069,74.982
		c-4.156-4.164-10.922-4.164-15.078,0l0,0c-4.171,4.164-4.171,10.921,0,15.085l60.342,60.342
		C107.489,154.574,114.239,154.574,118.411,150.41z"/>
	<path fill="#F6BB42" d="M373.324,255.992c0,5.891,4.781,10.664,10.672,10.664l85.324,0.008c5.891,0,10.672-4.781,10.672-10.672
		s-4.781-10.664-10.656-10.664h-85.34C378.105,245.328,373.324,250.102,373.324,255.992z"/>
	<path fill="#FFCE54" d="M329.592,150.402c4.156,4.164,10.904,4.164,15.092,0l60.328-60.334c4.172-4.164,4.172-10.922,0-15.085
		c-4.172-4.164-10.922-4.164-15.078,0l-60.342,60.334C325.436,139.48,325.42,146.238,329.592,150.402z"/>
</g>
</svg>
