<?xml version="1.0" encoding="utf-8"?>
<!-- Generator: Adobe Illustrator 16.0.0, SVG Export Plug-In . SVG Version: 6.00 Build 0)  -->
<!DOCTYPE svg PUBLIC "-//W3C//DTD SVG 1.1//EN" "http://www.w3.org/Graphics/SVG/1.1/DTD/svg11.dtd">
<svg version="1.1" id="Слой_1" xmlns="http://www.w3.org/2000/svg" xmlns:xlink="http://www.w3.org/1999/xlink" x="0px" y="0px"
	 width="512px" height="512px" viewBox="0 0 512 512" enable-background="new 0 0 512 512" xml:space="preserve">
<g id="whirlwind">
	<path fill="#CCD1D9" d="M138.668,479.988h-21.327c-5.891,0-10.672,4.781-10.672,10.656c0,5.906,4.781,10.688,10.672,10.688h21.327
		c5.891,0,10.672-4.781,10.672-10.688C149.34,484.77,144.559,479.988,138.668,479.988z"/>
	<path fill="#CCD1D9" d="M181.338,437.335H96.006c-5.891,0-10.664,4.749-10.664,10.655c0,5.874,4.773,10.655,10.664,10.655h85.332
		c5.891,0,10.664-4.781,10.664-10.655C192.002,442.084,187.229,437.335,181.338,437.335z"/>
	<path fill="#CCD1D9" d="M170.667,405.335c0-5.906-4.773-10.688-10.664-10.688H96.006c-5.891,0-10.664,4.781-10.664,10.688
		c0,5.875,4.773,10.656,10.664,10.656h63.997C165.894,415.991,170.667,411.21,170.667,405.335z"/>
	<path fill="#AAB2BC" d="M224.001,351.993H74.67c-5.891,0-10.664,4.781-10.664,10.655c0,5.906,4.773,10.688,10.664,10.688h149.331
		c5.891,0,10.664-4.781,10.664-10.688C234.665,356.774,229.892,351.993,224.001,351.993z"/>
	<path fill="#AAB2BC" d="M266.664,309.338H96.006c-5.891,0-10.664,4.75-10.664,10.656c0,5.874,4.773,10.655,10.664,10.655h170.658
		c5.898,0,10.68-4.781,10.68-10.655C277.344,314.088,272.563,309.338,266.664,309.338z"/>
	<path fill="#AAB2BC" d="M309.343,266.66H138.668c-5.891,0-10.664,4.781-10.664,10.679c0,5.875,4.773,10.656,10.664,10.656h170.675
		c5.875,0,10.656-4.781,10.656-10.656C319.999,271.441,315.218,266.66,309.343,266.66z"/>
	<path fill="#656D78" d="M373.34,223.989H74.67c-5.891,0-10.664,4.781-10.664,10.671c0,5.89,4.773,10.671,10.664,10.671h298.67
		c5.875,0,10.656-4.781,10.656-10.671C383.996,228.77,379.215,223.989,373.34,223.989z"/>
	<path fill="#656D78" d="M32.008,202.662h298.646c5.906,0,10.687-4.781,10.687-10.671s-4.78-10.656-10.687-10.656H32.008
		c-5.891,0-10.664,4.766-10.664,10.656S26.117,202.662,32.008,202.662z"/>
	<path fill="#656D78" d="M373.34,138.664H74.67c-5.891,0-10.664,4.766-10.664,10.671c0,5.891,4.773,10.656,10.664,10.656h298.67
		c5.875,0,10.656-4.765,10.656-10.656C383.996,143.43,379.215,138.664,373.34,138.664z"/>
	<path fill="#434A54" d="M437.339,117.336c5.874,0,10.654-4.781,10.654-10.671c0-5.891-4.78-10.672-10.654-10.672H96.006
		c-5.891,0-10.664,4.781-10.664,10.672c0,5.89,4.773,10.671,10.664,10.671H437.339z"/>
	<path fill="#434A54" d="M330.654,53.338H53.343c-5.891,0-10.672,4.766-10.672,10.656c0,5.89,4.781,10.671,10.672,10.671h277.312
		c5.906,0,10.687-4.781,10.687-10.671C341.341,58.104,336.561,53.338,330.654,53.338z"/>
	<path fill="#434A54" d="M501.336,10.668H10.672c-5.891,0-10.664,4.781-10.664,10.672s4.773,10.655,10.664,10.655h490.664
		c5.875,0,10.656-4.765,10.656-10.655S507.211,10.668,501.336,10.668z"/>
</g>
</svg>
