<?xml version="1.0" encoding="utf-8"?>
<!-- Generator: Adobe Illustrator 16.0.0, SVG Export Plug-In . SVG Version: 6.00 Build 0)  -->
<!DOCTYPE svg PUBLIC "-//W3C//DTD SVG 1.1//EN" "http://www.w3.org/Graphics/SVG/1.1/DTD/svg11.dtd">
<svg version="1.1" id="Слой_1" xmlns="http://www.w3.org/2000/svg" xmlns:xlink="http://www.w3.org/1999/xlink" x="0px" y="0px"
	 width="512px" height="512px" viewBox="0 0 512 512" enable-background="new 0 0 512 512" xml:space="preserve">
<g id="storm_2">
	<g>
		<path fill="#AAB2BC" d="M351.997,10.668c-46.123,0-87.669,19.523-116.871,50.749c-15.64-18.023-38.718-29.414-64.451-29.414
			c-47.14,0-85.325,38.202-85.325,85.333c0,0.711,0,1.422,0.031,2.125c-48.718,9.875-85.373,52.92-85.373,104.536
			c0,58.904,47.749,106.652,106.669,106.652h245.32c88.372,0,159.995-71.622,159.995-159.987
			C511.992,82.306,440.369,10.668,351.997,10.668z"/>
	</g>
	<g>
		<path fill="#949DA8" d="M453.962,47.37c22.922,27.687,36.703,63.217,36.703,101.966c0,88.356-71.638,160.002-159.995,160.002
			H85.35c-24.031,0-46.187-7.937-63.998-21.343c19.452,25.905,50.436,42.654,85.325,42.654h245.32
			c88.372,0,159.995-71.622,159.995-159.987C511.992,121.055,489.415,76.713,453.962,47.37z"/>
	</g>
	<g>
		<polygon fill="#F6BB42" points="256,309.385 256,181.334 170.675,373.383 234.673,373.383 234.673,501.332 319.999,309.385 		"/>
	</g>
</g>
</svg>
