<svg width="25" height="25" viewBox="0 0 25 25" fill="none" xmlns="http://www.w3.org/2000/svg">
<path d="M9.93809 7.7209L9.91837 4.82285L9.95274 4.81836C10.1254 3.67656 11.0338 2.6414 12.1447 2.37949C12.3199 2.33769 12.4963 2.3168 12.668 2.3168C13.7652 2.3168 14.5672 3.15254 14.575 4.3041C14.5838 5.44765 13.8049 6.57597 12.75 7.01797L12.7547 7.05156L12.4076 7.13672L9.93809 7.7209ZM10.7039 5.27344L10.7139 6.7334L12.2164 6.375C13.0922 6.14219 13.7994 5.21543 13.7924 4.30957C13.7877 3.58535 13.3356 3.09902 12.6678 3.09902C12.5568 3.09902 12.4412 3.11308 12.3244 3.14082C11.4502 3.34726 10.7242 4.25879 10.7057 5.17265L10.7039 5.27344Z" fill="#282D33"/>
<path d="M10.7281 7.7207L7.95762 7.06523V7.03457C6.88321 6.60566 6.0836 5.46308 6.09082 4.3041C6.09864 3.15254 6.90078 2.3168 7.99844 2.3168C8.17012 2.3168 8.34649 2.33769 8.52227 2.37949C9.6293 2.64082 10.5348 3.66992 10.7111 4.80703L10.7445 4.81035L10.7459 5.16777L10.7281 7.7207ZM8.53535 6.39785L9.95274 6.7334L9.9627 5.27265L9.95957 5.17226C9.9416 4.25859 9.21602 3.34726 8.34239 3.14082C8.2252 3.11308 8.10977 3.09902 7.99844 3.09902C7.33028 3.09902 6.87832 3.58555 6.87325 4.30918C6.86758 5.21562 7.57461 6.14238 8.44922 6.375L8.53535 6.39785Z" fill="#282D33"/>
<path d="M8.73516 11.308H0V6.91738H20.6561V10.917H19.8736V7.6998H0.782422V10.5258H8.73516V11.308Z" fill="#282D33"/>
<path d="M20.1065 22.6834H0.550201V10.917H1.33262V21.901H19.324V20.0416H20.1065V22.6834Z" fill="#282D33"/>
<path d="M17.6848 22.4701L9.89551 14.5709V6.97168H16.9437L25 15.1383L17.6848 22.4701ZM10.6779 14.25L17.6883 21.359L23.898 15.1352L16.6168 7.7541H10.6779V14.25ZM12.3451 10.6883C12.0381 10.6883 11.7502 10.5676 11.5348 10.3482C11.0947 9.9041 11.0957 9.17813 11.5379 8.73145C11.7545 8.51484 12.04 8.39629 12.3434 8.39629C12.6494 8.39629 12.9369 8.51621 13.1529 8.73438C13.5947 9.18379 13.5928 9.91016 13.1496 10.3545C12.9342 10.5697 12.6486 10.6883 12.3451 10.6883ZM12.3432 9.17852C12.2488 9.17852 12.1598 9.21543 12.0924 9.28301C11.952 9.4248 11.9512 9.65664 12.0916 9.79883C12.2273 9.93672 12.4607 9.93672 12.5957 9.80176C12.7371 9.66016 12.7373 9.42754 12.5957 9.28379C12.5287 9.21641 12.4389 9.17852 12.3432 9.17852Z" fill="#282D33"/>
<path d="M17.7863 16.0842H14.3947V12.4416C14.3947 11.4006 15.2365 10.5537 16.2711 10.5537H16.3023C17.2838 10.5537 18.0916 11.3166 18.1707 12.2844C18.6125 12.3215 19.0225 12.5125 19.3391 12.8312C19.693 13.1877 19.8875 13.6615 19.8871 14.165V14.1963C19.8871 15.2369 19.0453 16.0838 18.0107 16.0838L17.7863 16.0842ZM15.1772 15.3018L18.0106 15.3016C18.6143 15.3016 19.1051 14.8057 19.1051 14.1965V14.1648C19.1053 13.8689 18.9916 13.5912 18.7842 13.3828C18.5775 13.1748 18.3029 13.0602 18.0109 13.0602H17.3953V12.4414C17.3953 11.832 16.9051 11.3363 16.3025 11.3363H16.2713C15.6682 11.3363 15.1772 11.8322 15.1772 12.4418V15.3018Z" fill="#282D33"/>
<path d="M10.7197 16.7473H9.9373V22.1662H10.7197V16.7473Z" fill="#282D33"/>
</svg>
