<svg width="25" height="25" viewBox="0 0 25 25" fill="none" xmlns="http://www.w3.org/2000/svg">
<path d="M12.5 25C5.66952 25 0.112488 19.3924 0.112488 12.4998H0.893738C0.893738 18.9617 6.10018 24.2188 12.5 24.2188C18.8998 24.2188 24.1062 18.9617 24.1062 12.4998C24.1062 6.03828 18.8998 0.78125 12.5 0.78125V0C19.3305 0 24.8875 5.60742 24.8875 12.4998C24.8875 19.3924 19.3305 25 12.5 25Z" fill="#282D33"/>
<path d="M0.893738 12.4998H0.112488C0.112488 12.3686 0.114441 12.2371 0.118542 12.1068L0.899402 12.1311C0.895496 12.2533 0.893738 12.3766 0.893738 12.4998Z" fill="#282D33"/>
<path d="M0.947259 11.3672L0.169525 11.2934C0.195697 11.0174 0.231635 10.7385 0.27597 10.4645L1.04706 10.5896C1.00546 10.8467 0.971869 11.1082 0.947259 11.3672ZM1.19843 9.82051L0.437494 9.64434C0.499994 9.37402 0.57265 9.10234 0.653119 8.83672L1.40078 9.06348C1.32519 9.3125 1.25722 9.56719 1.19843 9.82051ZM1.65351 8.3207L0.922845 8.04434C1.02089 7.78496 1.12929 7.5252 1.24492 7.27207L1.95566 7.59648C1.84706 7.83398 1.7455 8.07754 1.65351 8.3207ZM2.30507 6.89453L1.61777 6.52305C1.7496 6.2791 1.8916 6.03613 2.03984 5.80098L2.70097 6.21738C2.56191 6.43789 2.4287 6.66582 2.30507 6.89453ZM3.14101 5.56836L2.50937 5.10859C2.67265 4.88418 2.84589 4.6623 3.02363 4.44941L3.62324 4.95C3.45644 5.1498 3.29413 5.35781 3.14101 5.56836ZM4.1455 4.36543L3.58066 3.82559C3.77285 3.62441 3.97402 3.42754 4.17812 3.24062L4.70546 3.81699C4.51425 3.99219 4.32578 4.17656 4.1455 4.36543ZM5.30117 3.30723L4.81327 2.69707C5.02988 2.52383 5.25546 2.35566 5.48339 2.19727L5.9291 2.83887C5.71542 2.9873 5.5041 3.14492 5.30117 3.30723ZM6.5871 2.41387L6.18554 1.74355C6.42343 1.60117 6.66952 1.46484 6.9166 1.33848L7.27187 2.03438C7.04042 2.15254 6.80996 2.28027 6.5871 2.41387ZM7.98085 1.70254L7.67402 0.983984C7.9291 0.875 8.1912 0.773437 8.45312 0.682031L8.71054 1.41953C8.46542 1.50547 8.21972 1.60059 7.98085 1.70254ZM9.45839 1.1877L9.25214 0.43418C9.51992 0.360937 9.79374 0.295898 10.0662 0.241211L10.2203 1.00723C9.96523 1.0582 9.70898 1.11914 9.45839 1.1877ZM10.9928 0.878906L10.8914 0.104297C11.159 0.0693359 11.4314 0.0427734 11.7012 0.0253906L11.7514 0.805078C11.4986 0.821289 11.2434 0.846289 10.9928 0.878906Z" fill="#282D33"/>
<path d="M12.1312 0.786914L12.107 0.00605469C12.2373 0.00195312 12.3687 0 12.5 0V0.78125C12.3768 0.78125 12.2535 0.783008 12.1312 0.786914Z" fill="#282D33"/>
<path d="M15.5308 18.4816L12.5 15.4229L9.46892 18.4816L6.57361 15.5594L9.60447 12.5002L6.57361 9.44141L9.46873 6.51836L12.5 9.57734L15.5308 6.51836L18.4263 9.44141L15.3955 12.5002L18.4263 15.5594L15.5308 18.4816ZM7.67341 15.5594L9.46892 17.3715L12.5 14.3127L15.5308 17.3715L17.3265 15.5594L14.2957 12.5002L17.3265 9.44141L15.5308 7.62852L12.5 10.6875L9.46892 7.62852L7.67322 9.44141L10.7041 12.5004L7.67341 15.5594Z" fill="#282D33"/>
</svg>
