<svg width="25" height="25" viewBox="0 0 25 25" fill="none" xmlns="http://www.w3.org/2000/svg">
<g clip-path="url(#clip0_18_65)">
<path d="M12.5248 -0.000389099H11.7436V1.67324H12.5248V-0.000389099Z" fill="#282D33"/>
<path d="M7.293 2.79083L6.45618 1.34147L5.77962 1.73209L6.61644 3.18146L7.293 2.79083Z" fill="#282D33"/>
<path d="M3.32084 6.37513L1.87114 5.53812L1.48051 6.21468L2.93022 7.05169L3.32084 6.37513Z" fill="#282D33"/>
<path d="M1.67344 11.4647H0V12.2459H1.67344V11.4647Z" fill="#282D33"/>
<path d="M13.2562 23.3266H12.475V25.0004H13.2562V23.3266Z" fill="#282D33"/>
<path d="M19.2198 23.2671L18.3829 21.8175L17.7062 22.2083L18.5431 23.6578L19.2198 23.2671Z" fill="#282D33"/>
<path d="M23.5184 18.7848L22.0688 17.9479L21.6781 18.6247L23.1277 19.4616L23.5184 18.7848Z" fill="#282D33"/>
<path d="M25 12.7541H23.3266V13.5354H25V12.7541Z" fill="#282D33"/>
<path d="M12.5002 21.6459V20.8646C17.1117 20.8646 20.8635 17.1123 20.8635 12.5H21.6447C21.6447 17.5432 17.5428 21.6459 12.5002 21.6459Z" fill="#282D33"/>
<path d="M4.13574 12.5H3.35449C3.35449 7.45684 7.45742 3.35371 12.5006 3.35371V4.13496C7.88828 4.13516 4.13574 7.8877 4.13574 12.5Z" fill="#282D33"/>
<path d="M5.32227 24.2656C4.09707 24.2656 2.94512 23.7885 2.07891 22.9219C1.21289 22.0557 0.735939 20.9041 0.735939 19.6791C0.735939 18.4539 1.21289 17.3023 2.07891 16.4363L6.00332 12.5111C6.86953 11.6449 8.02129 11.1682 9.24629 11.1682C9.76719 11.1682 10.2773 11.2541 10.7627 11.4238L10.5049 12.1613C10.1025 12.0207 9.6791 11.9494 9.24629 11.9494C8.22988 11.9494 7.27442 12.3451 6.55586 13.0637L2.63145 16.9889C1.91289 17.7072 1.51719 18.6627 1.51719 19.6791C1.51719 20.6953 1.91289 21.651 2.63125 22.3693C3.35 23.0883 4.30586 23.4842 5.32227 23.4842C6.33828 23.4842 7.29356 23.0883 8.01192 22.3693L11.9363 18.4455C12.9664 17.4154 13.3178 15.8596 12.8314 14.4822L13.568 14.2221C14.1539 15.8814 13.7301 17.7563 12.4887 18.9979L8.56445 22.9219C7.69863 23.7885 6.54707 24.2656 5.32227 24.2656ZM5.32168 21.7775C4.78379 21.7775 4.2461 21.5731 3.83652 21.1639C3.01836 20.3447 3.01836 19.0125 3.83633 18.1939L7.76133 14.2695L8.31367 14.8219L4.38887 18.7463C3.87539 19.2604 3.87539 20.0971 4.38906 20.6115C4.90352 21.1252 5.74043 21.1252 6.25469 20.6111L10.1785 16.6875L10.7311 17.2398L6.80703 21.1637C6.39746 21.5729 5.85957 21.7775 5.32168 21.7775Z" fill="#282D33"/>
<path d="M15.7555 13.8324C15.176 13.8324 14.6115 13.7262 14.0781 13.5164L14.3639 12.7893C14.8061 12.9631 15.274 13.0512 15.7555 13.0512C16.7719 13.0512 17.7271 12.6551 18.4457 11.9359L22.3703 8.01211C23.0879 7.29453 23.4832 6.33887 23.4832 5.32129C23.4832 4.30371 23.0879 3.34805 22.3703 2.63086C21.6516 1.91172 20.6965 1.51602 19.6803 1.51602C18.6637 1.51602 17.708 1.91192 16.9895 2.63086L13.065 6.55508C12.3465 7.27383 11.9506 8.2293 11.9506 9.24551C11.9506 9.67813 12.0219 10.1018 12.1627 10.5045L11.4252 10.7623C11.2555 10.2766 11.1693 9.76621 11.1693 9.24551C11.1693 8.02051 11.6465 6.86875 12.5127 6.00254L16.4369 2.07832C17.3033 1.21172 18.4549 0.734573 19.6801 0.734573C20.9049 0.734573 22.0566 1.21172 22.9227 2.07832C23.7881 2.94317 24.2645 4.09473 24.2645 5.3211C24.2645 6.54727 23.7881 7.69922 22.9227 8.56426L18.9982 12.4883C18.1322 13.3551 16.9805 13.8324 15.7555 13.8324ZM17.2406 10.7303L16.6883 10.1777L20.6125 6.25391C21.1264 5.73946 21.1268 4.90274 20.6129 4.38867C20.0986 3.87442 19.2613 3.87442 18.7471 4.38867L14.8228 8.31309L14.2705 7.76075L18.1949 3.83653C19.0135 3.01758 20.3465 3.01758 21.1654 3.83653C21.9836 4.65508 21.9836 5.9875 21.165 6.80645L17.2406 10.7303Z" fill="#282D33"/>
<path d="M9.20664 17.8932C8.64512 17.8932 8.11758 17.675 7.72148 17.2787C6.90293 16.46 6.90293 15.1275 7.72148 14.3088L14.2359 7.79453C14.6318 7.39844 15.1596 7.18027 15.7211 7.18027C16.2828 7.18027 16.81 7.39844 17.2061 7.79453C18.0246 8.61348 18.0246 9.94551 17.2061 10.7641L10.6914 17.2789C10.2957 17.675 9.76836 17.8932 9.20664 17.8932ZM15.7211 7.96172C15.3682 7.96172 15.0371 8.09863 14.7885 8.34707L8.27402 14.8613C7.76015 15.3756 7.76015 16.2123 8.27402 16.7266C8.52246 16.975 8.85371 17.1121 9.20644 17.1121C9.55918 17.1121 9.89043 16.9752 10.1387 16.7266L16.6533 10.2117C17.1672 9.69785 17.1672 8.86133 16.6533 8.34707C16.4053 8.09844 16.0736 7.96172 15.7211 7.96172Z" fill="#282D33"/>
</g>
<defs>
<clipPath id="clip0_18_65">
<rect width="25" height="25" fill="white"/>
</clipPath>
</defs>
</svg>
