<svg width="25" height="25" viewBox="0 0 25 25" fill="none" xmlns="http://www.w3.org/2000/svg">
<g clip-path="url(#clip0_1_136)">
<path d="M9.27029 18.2299C4.24778 18.2299 0.160381 14.1418 0.158601 9.11719C0.157414 6.69434 1.10122 4.40996 2.81614 2.68477C4.53957 0.95332 6.83114 0 9.2687 0C11.708 0 13.9959 0.948633 15.7203 2.67129C17.4433 4.39336 18.3923 6.68125 18.3923 9.11348C18.3927 11.5365 17.4494 13.8197 15.7365 15.5422C14.0097 17.2754 11.716 18.2299 9.2778 18.2299C9.27761 18.2299 9.2778 18.2299 9.27761 18.2299L9.27009 17.8393L9.27583 17.4486C11.5019 17.4486 13.5955 16.5772 15.1721 14.9947C16.7387 13.4195 17.6012 11.3309 17.6008 9.11367C17.6008 6.88809 16.7329 4.79531 15.1571 3.22051C13.5828 1.64746 11.495 0.78125 9.2784 0.78125C7.04518 0.78125 4.95401 1.65176 3.38073 3.23223C1.812 4.81016 0.9489 6.9002 0.949889 9.1168C0.951274 13.7109 4.68398 17.4486 9.27029 17.4486V18.2299Z" fill="#282D33"/>
<path d="M9.27088 16.0805C7.41194 16.0805 5.6628 15.3547 4.3459 14.0367C3.03018 12.7199 2.30616 10.9723 2.30695 9.11544C2.30655 7.26309 3.02821 5.51778 4.33937 4.20137C5.65647 2.87715 7.40878 2.14708 9.27345 2.1459C11.1373 2.1459 12.8875 2.87208 14.2038 4.19083C15.5193 5.50528 16.2451 7.25313 16.2471 9.11192C16.2475 10.965 15.5258 12.7096 14.2152 14.0248C12.896 15.3502 11.1421 16.0803 9.27642 16.0805H9.27088ZM9.27602 2.92715C7.62322 2.92813 6.0713 3.57501 4.90395 4.74903C3.73918 5.91856 3.09804 7.46915 3.09843 9.11563C3.09784 10.7658 3.74096 12.3186 4.90949 13.4881C6.07645 14.6561 7.62539 15.2992 9.27107 15.2992V15.6899L9.27622 15.2992C10.9282 15.299 12.4819 14.652 13.6513 13.4772C14.8156 12.309 15.4566 10.7588 15.4562 9.11231C15.4546 7.46036 14.8097 5.90743 13.6408 4.73946C12.474 3.57071 10.9241 2.92715 9.27602 2.92715Z" fill="#282D33"/>
<path d="M5.53403 9.11467L4.74274 9.11447C4.74293 7.90978 5.21217 6.77482 6.06379 5.91916C6.92194 5.05705 8.06239 4.58224 9.27484 4.58224V5.36349C8.27623 5.36349 7.33638 5.75529 6.62838 6.46682C5.92274 7.1756 5.53422 8.11603 5.53403 9.11467Z" fill="#282D33"/>
<path d="M22.5934 25C22.2559 25 21.9206 24.932 21.597 24.7978L21.5242 24.7678L15.3965 18.6361L18.7927 15.2389L24.9273 21.3764L24.957 21.4478C25.2935 22.2605 25.2059 23.1396 24.716 23.8598C24.2306 24.5736 23.4369 25 22.5934 25ZM21.9736 24.1051C22.7459 24.3912 23.5995 24.1004 24.0593 23.4244C24.3857 22.9441 24.4543 22.3607 24.2516 21.8127L18.7927 16.3512L16.508 18.6361L21.9736 24.1051Z" fill="#282D33"/>
<path d="M20.3625 18.0062L19.7991 17.4576L17.6075 19.6516L18.1709 20.2002L20.3625 18.0062Z" fill="#282D33"/>
<path d="M17.4473 16.7356L15.8999 15.187L15.3366 15.7356L16.884 17.2843L17.4473 16.7356Z" fill="#282D33"/>
</g>
<defs>
<clipPath id="clip0_1_136">
<rect width="25" height="25" fill="white"/>
</clipPath>
</defs>
</svg>
