<svg width="25" height="25" viewBox="0 0 25 25" fill="none" xmlns="http://www.w3.org/2000/svg">
<path d="M11.1984 17.3293L5.87891 12.5L11.1984 7.6709V10.4471H18.9305V14.5533H11.1984V17.3293ZM7.04121 12.5L10.4172 15.5648V13.7721H18.1492V11.2283H10.4172V9.43535L7.04121 12.5Z" fill="#282D33"/>
<path d="M12.5 25C5.66934 25 0.112305 19.3926 0.112305 12.5002C0.112305 5.60762 5.66934 0 12.5 0C19.3307 0 24.8877 5.60762 24.8877 12.5002H24.1064C24.1064 6.03848 18.8998 0.78125 12.5 0.78125C6.1002 0.78125 0.893555 6.03848 0.893555 12.5002C0.893555 18.9619 6.1002 24.2188 12.5 24.2188V25Z" fill="#282D33"/>
<path d="M24.8816 12.8941L24.1008 12.8682C24.1049 12.7459 24.1064 12.623 24.1064 12.5002H24.8877C24.8877 12.6318 24.8859 12.7631 24.8816 12.8941Z" fill="#282D33"/>
<path d="M13.2986 24.9744L13.2486 24.1947C13.5018 24.1785 13.7572 24.1535 14.0074 24.1207L14.109 24.8955C13.8416 24.9305 13.5691 24.957 13.2986 24.9744ZM14.9338 24.7586L14.7805 23.9926C15.0344 23.9416 15.2904 23.8811 15.5418 23.8123L15.7482 24.5656C15.4795 24.6393 15.2055 24.7041 14.9338 24.7586ZM16.5469 24.3174L16.2898 23.5797C16.5355 23.4941 16.781 23.3988 17.0193 23.2973L17.326 24.0156C17.0715 24.1244 16.8092 24.2258 16.5469 24.3174ZM18.083 23.6613L17.7283 22.9652C17.9592 22.8475 18.1894 22.7199 18.4133 22.5861L18.8146 23.2564C18.5758 23.3994 18.3297 23.5355 18.083 23.6613ZM19.517 22.8027L19.0711 22.1611C19.284 22.0133 19.4953 21.8559 19.6994 21.6928L20.1869 22.3031C19.9693 22.4768 19.7439 22.6449 19.517 22.8027ZM20.8221 21.7592L20.2945 21.1832C20.4863 21.0076 20.6748 20.8229 20.8545 20.6346L21.4195 21.1744C21.2279 21.375 21.0268 21.5719 20.8221 21.7592ZM21.9768 20.5508L21.3771 20.05C21.5445 19.8496 21.7068 19.6416 21.8596 19.4318L22.4912 19.8916C22.3281 20.115 22.1553 20.3369 21.9768 20.5508ZM22.9603 19.199L22.2996 18.7824C22.4383 18.5623 22.5715 18.3346 22.6951 18.1053L23.3826 18.4768C23.2504 18.7215 23.1082 18.9645 22.9603 19.199ZM23.7555 17.7283L23.0447 17.4037C23.1533 17.1664 23.2547 16.9227 23.3467 16.6797L24.0775 16.9559C23.9793 17.2152 23.8711 17.4752 23.7555 17.7283ZM24.3473 16.1633L23.5996 15.9367C23.6752 15.6875 23.7432 15.4328 23.8019 15.1795L24.5629 15.3557C24.5004 15.626 24.4277 15.8977 24.3473 16.1633ZM24.7244 14.5354L23.9531 14.4102C23.9949 14.1535 24.0285 13.8918 24.0531 13.6328L24.8309 13.7068C24.8045 13.983 24.7685 14.2617 24.7244 14.5354Z" fill="#282D33"/>
<path d="M12.5 25V24.2188C12.623 24.2188 12.7465 24.2168 12.8691 24.2133L12.8928 24.9941C12.7621 24.998 12.6311 25 12.5 25Z" fill="#282D33"/>
</svg>
