<svg width="540" height="555" viewBox="0 0 540 555" fill="none" xmlns="http://www.w3.org/2000/svg">
<path fill-rule="evenodd" clip-rule="evenodd" d="M262.634 1.19454C257.777 2.79019 253.86 5.73509 250.519 10.3041C245.896 16.6263 245.816 17.362 246.029 51.6556L246.218 82.1332L248.442 86.773C250.869 91.8369 254.28 95.3204 259.728 98.3C262.768 99.9623 263.815 100.147 270.199 100.147C276.582 100.147 277.629 99.9623 280.669 98.3C286.119 95.3197 289.528 91.8369 291.955 86.771L294.179 82.1298V50.1884C294.179 18.8362 294.152 18.1873 292.707 14.9737C291.038 11.2626 285.987 5.41582 282.581 3.25313C277.236 -0.141528 269.218 -0.968849 262.634 1.19454ZM88.2928 75.1447C81.504 77.8078 75.0963 84.6423 73.2407 91.1998C71.506 97.3304 72.0971 104.65 74.7761 110.226C76.6472 114.12 79.6349 117.473 97.0675 135.245C114.988 153.513 117.66 155.974 121.402 157.658C126.903 160.134 134.274 160.306 140.028 158.094C150.33 154.134 157.387 141.611 155.434 130.756C154.023 122.917 152.963 121.519 131.84 99.6652C108.192 75.1982 107.421 74.6325 97.2715 74.3306C92.897 74.2001 90.0389 74.4597 88.2928 75.1447ZM435.699 75.2377C430.59 77.1408 427.932 79.5381 407.954 100.259C390.544 118.317 388.468 120.716 386.725 124.786C380.378 139.612 389.714 156.827 405.537 159.473C408.077 159.897 410.756 159.872 413.271 159.398C420.828 157.977 423.275 155.998 444.338 134.275C467.654 110.229 467.781 110.036 467.781 98.7588C467.781 92.7996 467.547 91.3275 466.126 88.3479C463.998 83.8857 458.578 78.3291 454.271 76.1935C449.864 74.0079 440.319 73.5165 435.699 75.2377ZM253.649 126.944C223.932 130.68 197.925 142.233 175.291 161.753C129.578 201.177 111.653 265.455 130.053 323.982C147.377 379.092 193.997 419.248 250.271 427.532C258.054 428.678 282.174 428.668 290.126 427.517C349.691 418.892 398.026 374.389 413.083 314.309C415.611 304.223 416.814 294.967 417.252 282.247C417.893 263.623 415.707 247.873 410.017 230.125C398.029 192.732 372.74 161.904 339.089 143.663C316.786 131.573 294.633 126.056 269.211 126.262C263.252 126.31 256.25 126.617 253.649 126.944ZM16.7847 253.57C12.9803 254.79 7.45545 258.936 4.72172 262.624C2.25886 265.945 0 273.027 0 277.427C0 288.527 8.3086 299.513 18.414 301.773C20.8519 302.319 30.9924 302.496 51 302.342L80.0463 302.119L83.8426 300.29C89.1824 297.717 92.8449 294.047 95.4071 288.698C97.4255 284.486 97.6092 283.551 97.6092 277.494C97.6092 271.805 97.362 270.344 95.8293 266.985C93.3259 261.5 89.7525 257.736 84.5492 255.103L80.0781 252.84L50.0023 252.702C25.321 252.587 19.3638 252.743 16.7847 253.57ZM458.662 253.913C451.448 256.572 446.49 261.588 443.8 268.955C442.634 272.144 442.38 274.111 442.561 278.537C442.966 288.453 447.834 295.98 456.636 300.297L460.351 302.119L490.007 302.32C518.238 302.512 519.857 302.454 523.693 301.123C530.677 298.7 537.309 292.039 539.195 285.554C540.271 281.854 540.267 273.092 539.188 269.378C538.057 265.482 533.791 259.793 529.838 256.905C523.941 252.597 523.005 252.491 491.132 252.518C464.251 252.542 462.135 252.633 458.662 253.913ZM126.558 395.46C119.817 396.921 117.25 399.034 96.7912 419.965C73.5886 443.703 72.8367 444.777 72.4132 454.812C72.0592 463.212 73.6169 467.587 78.9324 473.121C84.6201 479.044 87.9564 480.459 96.2582 480.478C107.299 480.502 107.409 480.425 131.146 455.992C152.805 433.7 154.21 431.83 155.266 423.894C156.413 415.277 153.737 407.604 147.564 401.808C141.878 396.468 133.538 393.948 126.558 395.46ZM404.488 395.489C392.244 397.61 382.706 411.658 384.969 424.237C386.368 432.011 387.922 434.042 409.251 455.956C433.026 480.386 433.149 480.474 443.473 480.485C449.764 480.492 450.556 480.332 454.753 478.211C459.74 475.691 463.434 471.888 466.094 466.535C467.56 463.585 467.781 462.233 467.781 456.201C467.781 444.892 467.654 444.699 444.314 420.657C423.163 398.869 420.819 396.981 413.111 395.531C408.721 394.704 409.012 394.705 404.488 395.489ZM262.663 455.393C255.67 458.072 250.986 462.414 247.975 469.009L246.218 472.858L246.029 503.32C245.815 537.633 245.891 538.328 250.556 544.706C254.055 549.491 258.449 552.606 263.796 554.093C275.315 557.297 286.958 551.82 292.275 540.695L294.179 536.712V504.77V472.829L291.955 468.188C289.514 463.094 286.061 459.581 280.669 456.706C277.921 455.241 276.156 454.862 271.212 454.676C267.224 454.526 264.283 454.772 262.663 455.393Z" fill="#FFC300"/>
</svg>
