<svg width="25" height="25" viewBox="0 0 25 25" fill="none" xmlns="http://www.w3.org/2000/svg">
<path d="M11.4844 25C5.28456 25 0.240814 20.0078 0.240814 13.8717C0.240814 7.73594 5.28456 2.74414 11.4844 2.74414V3.52539C5.71542 3.52539 1.02206 8.1668 1.02206 13.8717C1.02187 19.577 5.71542 24.2187 11.4844 24.2187C17.2527 24.2187 21.9457 19.577 21.9457 13.8717H22.7269C22.7268 20.0078 17.6834 25 11.4844 25Z" fill="#282D33"/>
<path d="M11.4846 25C7.80723 25 4.81543 20.0078 4.81543 13.8717C4.81543 7.73594 7.80723 2.74414 11.4846 2.74414V3.52539C8.23789 3.52539 5.59668 8.1668 5.59668 13.8717C5.59668 19.577 8.23789 24.2187 11.4846 24.2187C14.0143 24.2187 16.3211 21.2482 17.0939 16.9949L17.8627 17.1346C17.0076 21.8391 14.4443 25 11.4846 25Z" fill="#282D33"/>
<path d="M11.4846 25H11.0939V10.3764H11.8752V24.2117C17.4635 24.008 21.9461 19.4479 21.9461 13.8719C21.9461 13.3002 21.899 12.7309 21.8058 12.1797L22.576 12.0496C22.6764 12.6438 22.7271 13.2566 22.7271 13.8719C22.7271 20.0078 17.6838 25 11.4846 25Z" fill="#282D33"/>
<path d="M21.9004 18.0465H1.06795L0.972247 17.7947C0.487091 16.5199 0.240997 15.1998 0.240997 13.8717C0.240997 12.5424 0.487482 11.2217 0.973224 9.94649L1.06912 9.69492H11.4324V10.4762H1.61092C1.2201 11.584 1.02205 12.7248 1.02205 13.8717C1.02205 15.0176 1.2199 16.1578 1.61014 17.2652H21.3576C21.7478 16.1559 21.9455 15.0154 21.9455 13.8717H22.7267C22.7267 15.1975 22.4808 16.5174 21.9961 17.7945L21.9004 18.0465Z" fill="#282D33"/>
<path d="M17.3855 17.5229L17.1336 17.3102C16.8428 17.0648 10.009 11.2547 10.009 7.2998C10.009 3.27461 13.318 0 17.3855 0C21.4514 0 24.7594 3.27461 24.7594 7.2998C24.7594 11.2545 17.9281 17.0648 17.6375 17.3102L17.3855 17.5229ZM17.3855 0.78125C13.749 0.78125 10.7902 3.70547 10.7902 7.2998C10.7902 10.4947 16.1488 15.4039 17.3855 16.4941C18.6217 15.4039 23.9781 10.4947 23.9781 7.2998C23.9781 3.70547 21.0207 0.78125 17.3855 0.78125ZM17.3855 11.1207C15.2564 11.1207 13.524 9.40664 13.524 7.2998C13.524 5.19453 15.2562 3.48184 17.3855 3.48184C19.5105 3.48184 21.2391 5.19453 21.2391 7.2998C21.2391 9.40664 19.5105 11.1207 17.3855 11.1207ZM17.3855 4.26309C15.6871 4.26309 14.3053 5.62539 14.3053 7.2998C14.3053 8.97598 15.6869 10.3395 17.3855 10.3395C19.0797 10.3395 20.4578 8.97598 20.4578 7.2998C20.4578 5.62539 19.0797 4.26309 17.3855 4.26309Z" fill="#282D33"/>
<path d="M17.3855 11.1207C15.2564 11.1207 13.524 9.40664 13.524 7.2998C13.524 5.19453 15.2562 3.48183 17.3855 3.48183C19.5105 3.48183 21.2391 5.19453 21.2391 7.2998C21.2391 9.40664 19.5105 11.1207 17.3855 11.1207ZM17.3855 4.26308C15.6871 4.26308 14.3053 5.62539 14.3053 7.2998C14.3053 8.97598 15.6869 10.3395 17.3855 10.3395C19.0797 10.3395 20.4578 8.97598 20.4578 7.2998C20.4578 5.62539 19.0797 4.26308 17.3855 4.26308Z" fill="#282D33"/>
</svg>
