<svg width="25" height="25" viewBox="0 0 25 25" fill="none" xmlns="http://www.w3.org/2000/svg">
<path d="M14.3279 25H10.2522L9.98907 21.8037C9.07071 21.5512 8.20118 21.1627 7.39727 20.6457L5.06016 22.6477L2.18203 19.7324L4.22657 17.2855C3.75235 16.448 3.4084 15.548 3.20117 14.6035L0.150589 14.3457L0.151566 10.2289L3.30703 9.9627C3.55684 9.03027 3.9418 8.14785 4.4545 7.33203L2.47813 4.9668L5.35684 2.05176L7.775 4.12383C8.59981 3.64609 9.48614 3.29902 10.4172 3.08926L10.6717 0H14.748L15.0113 3.19668C15.9311 3.4502 16.8004 3.83867 17.6031 4.35449L19.9408 2.35195L22.8193 5.26699L20.7738 7.71367C21.2484 8.55234 21.5924 9.45234 21.7996 10.3965L24.8494 10.6539L24.849 14.7707L21.6932 15.0371C21.443 15.9703 21.058 16.8529 20.5457 17.6678L22.5221 20.0328L19.6436 22.948L17.2246 20.8758C16.3984 21.3539 15.5121 21.7012 14.583 21.9107L14.3279 25ZM10.9719 24.2188H13.6086L13.8527 21.2605L14.1434 21.2045C15.1791 21.0051 16.1602 20.6213 17.0594 20.0643L17.3023 19.9137L19.5988 21.8811L21.4672 19.9889L19.5732 17.7225L19.7369 17.4791C20.3297 16.5961 20.7559 15.6211 21.0025 14.5811L21.0678 14.3059L24.0676 14.0527L24.068 11.3719L21.1459 11.125L21.091 10.8328C20.8934 9.78184 20.5143 8.78672 19.9639 7.87539L19.8197 7.63672L21.7645 5.31016L19.8961 3.41816L17.6588 5.33477L17.4115 5.16445C16.5406 4.56523 15.5785 4.13438 14.552 3.88379L14.2785 3.81699L14.0285 0.78125H11.3914L11.1477 3.73926L10.8566 3.79551C9.81856 3.9957 8.8375 4.3793 7.94043 4.93555L7.69746 5.08613L5.40137 3.11855L3.53301 5.01055L5.42715 7.27734L5.26368 7.5207C4.66993 8.40488 4.24395 9.37988 3.99766 10.4186L3.93243 10.6939L0.93262 10.9469L0.932034 13.6275L3.8545 13.8744L3.90938 14.1666C4.10684 15.2187 4.48614 16.2133 5.03653 17.123L5.18106 17.3617L3.23653 19.6887L5.10469 21.5809L7.34141 19.6648L7.58887 19.8352C8.46153 20.4357 9.42344 20.8666 10.4477 21.1156L10.7217 21.1822L10.9719 24.2188Z" fill="#282D33"/>
<path d="M6.45976 12.5002H5.67851C5.67851 8.69395 8.73867 5.59727 12.5004 5.59727V6.37852C9.16953 6.37852 6.45976 9.12481 6.45976 12.5002Z" fill="#282D33"/>
<path d="M12.5 16.6611C10.2318 16.6611 8.38652 14.7945 8.38652 12.5002C8.38652 10.2059 10.2318 8.33945 12.5 8.33945C14.7682 8.33945 16.6133 10.2059 16.6133 12.5002C16.6135 14.7945 14.7682 16.6611 12.5 16.6611ZM12.5 9.1207C10.6625 9.1207 9.16777 10.6367 9.16777 12.5002C9.16777 14.3637 10.6625 15.8799 12.5 15.8799C14.3375 15.8799 15.832 14.3637 15.832 12.5002C15.8322 10.6367 14.3375 9.1207 12.5 9.1207Z" fill="#282D33"/>
</svg>
