<svg width="25" height="25" viewBox="0 0 25 25" fill="none" xmlns="http://www.w3.org/2000/svg">
<path d="M12.5018 25C10.0418 25 7.67013 24.2676 5.62716 22.8795L1.52501 24.8199L2.94415 20.4154C1.13556 18.1861 0.142395 15.3844 0.142395 12.5006C0.142395 5.60762 5.68673 0 12.5018 0V0.78125C6.1174 0.78125 0.923645 6.03848 0.923645 12.5006C0.923645 15.2734 1.90275 17.9652 3.68048 20.0803L3.81954 20.2459L2.82189 23.3422L5.70333 21.9793L5.88947 22.1109C7.84161 23.4898 10.1281 24.2188 12.5018 24.2188C18.8842 24.2188 24.0766 18.9619 24.0766 12.5006H24.8578C24.8576 19.3928 19.3149 25 12.5018 25Z" fill="#282D33"/>
<path d="M24.8576 12.5006H24.0764C24.0764 12.3771 24.0744 12.2545 24.0711 12.132L24.852 12.1094C24.8559 12.2395 24.8576 12.3697 24.8576 12.5006Z" fill="#282D33"/>
<path d="M24.0229 11.3695C23.9983 11.1092 23.9649 10.8473 23.9233 10.5908L24.6946 10.466C24.7389 10.7395 24.7744 11.0187 24.8006 11.2961L24.0229 11.3695ZM23.7723 9.82051C23.7137 9.56621 23.6459 9.31113 23.5705 9.0623L24.3182 8.83594C24.3985 9.10137 24.4709 9.37344 24.5338 9.64512L23.7723 9.82051ZM23.3178 8.31836C23.226 8.07519 23.1244 7.83105 23.0158 7.59277L23.727 7.26914C23.8426 7.52305 23.9508 7.7832 24.0487 8.04238L23.3178 8.31836ZM22.6664 6.88965C22.5422 6.65957 22.4092 6.43144 22.2707 6.21133L22.9319 5.79512C23.0797 6.02988 23.2215 6.27324 23.3539 6.51855L22.6664 6.88965ZM21.8303 5.56113C21.677 5.35019 21.5145 5.1418 21.3475 4.9416L21.9475 4.44121C22.1254 4.65449 22.2987 4.87676 22.4619 5.10156L21.8303 5.56113ZM20.8248 4.35625C20.6446 4.16719 20.4559 3.98242 20.2645 3.80723L20.7916 3.23086C20.9963 3.41797 21.1977 3.61523 21.3901 3.8168L20.8248 4.35625ZM19.6682 3.29668C19.4649 3.13418 19.2532 2.97637 19.0391 2.82773L19.4846 2.18613C19.7131 2.34473 19.9387 2.51309 20.1557 2.68633L19.6682 3.29668ZM18.3799 2.40254C18.1557 2.26836 17.9248 2.14082 17.6938 2.02344L18.0481 1.32715C18.2948 1.45273 18.5412 1.58887 18.7807 1.73223L18.3799 2.40254ZM16.9838 1.69219C16.7446 1.59043 16.4989 1.49551 16.253 1.41035L16.509 0.672265C16.7715 0.76328 17.0342 0.864452 17.2899 0.973437L16.9838 1.69219ZM15.5039 1.1793C15.253 1.11133 14.9959 1.05117 14.7406 1.00039L14.8928 0.233984C15.1656 0.28828 15.4401 0.352538 15.7084 0.425195L15.5039 1.1793ZM13.9668 0.874218C13.7299 0.843945 13.4883 0.820702 13.2487 0.805077L13.299 0.0255852C13.5549 0.0419914 13.8129 0.0667961 14.066 0.099218L13.9668 0.874218Z" fill="#282D33"/>
<path d="M12.8699 0.786914C12.7477 0.783008 12.6248 0.78125 12.5018 0.78125V0C12.6328 0 12.7637 0.00195312 12.894 0.00605469L12.8699 0.786914Z" fill="#282D33"/>
<path d="M12.3045 19.0275C8.68712 19.0275 5.74396 16.052 5.74396 12.3943C5.74396 8.73711 8.68693 5.76172 12.3045 5.76172C14.2783 5.76172 16.1287 6.64824 17.3811 8.19375L16.7742 8.68574C15.6709 7.32402 14.0418 6.54316 12.3045 6.54316C9.11779 6.54316 6.52521 9.16797 6.52521 12.3945C6.52521 15.6213 9.11759 18.2465 12.3045 18.2465C13.5721 18.2465 14.7756 17.8381 15.7854 17.0656L16.26 17.6863C15.1129 18.5637 13.7451 19.0275 12.3045 19.0275Z" fill="#282D33"/>
<path d="M11.1901 15.5547C11.1899 15.5547 11.1901 15.5547 11.1901 15.5547C10.9414 15.5547 10.6774 15.5145 10.4049 15.4352C9.59885 15.201 9.0094 14.5447 8.78811 13.6348C8.48381 12.3852 8.93948 10.9953 9.97756 10.0078C10.8811 9.14922 12.1242 8.96914 13.0082 8.96914C13.7573 8.96914 14.3135 9.09551 14.3369 9.10097L14.7434 9.19472L14.6231 9.59414C14.5778 9.74512 13.5076 13.2978 13.3172 13.849C13.141 14.3611 12.5807 15.5547 11.1901 15.5547ZM13.0082 9.75019C12.2666 9.75019 11.2324 9.89316 10.5158 10.5738C9.51702 11.5242 9.36038 12.6826 9.54729 13.45C9.70081 14.0807 10.093 14.5307 10.6233 14.6848C10.8248 14.7436 11.0155 14.7732 11.1899 14.7732C12.0455 14.7732 12.4272 14.0346 12.5783 13.5941C12.7256 13.1682 13.4483 10.7816 13.7461 9.79512C13.549 9.77129 13.294 9.75019 13.0082 9.75019Z" fill="#282D33"/>
<path d="M14.8953 15.4961C14.36 15.4961 13.8719 15.3092 13.4739 14.943C12.6117 14.1502 13.4256 10.9635 13.6957 10.0057L14.4477 10.2176C13.9043 12.1469 13.6963 14.0863 14.0028 14.3682C14.4924 14.8182 15.0854 14.7471 15.4967 14.6084C16.4092 14.3008 17.4643 13.2523 17.716 11.8434C17.8996 10.8141 17.7211 9.2666 15.8268 7.73848L16.3174 7.13047C18.6246 8.9916 18.6658 10.9682 18.4852 11.9807C18.2116 13.5123 17.0854 14.8973 15.7465 15.3488C15.4541 15.4473 15.1684 15.4961 14.8953 15.4961Z" fill="#282D33"/>
</svg>
