<svg width="25" height="25" viewBox="0 0 25 25" fill="none" xmlns="http://www.w3.org/2000/svg">
<path d="M0.335541 25L3.5789 18.9697C1.86757 16.9 0.928119 14.3094 0.928119 11.643C0.928119 5.22305 6.25253 0 12.7971 0C19.3404 0 24.6639 5.22305 24.6643 11.643C24.6643 18.0639 19.3408 23.2877 12.7975 23.2877C10.4488 23.2877 8.18515 22.6137 6.23378 21.3361L0.335541 25ZM12.7971 0.783398C6.68457 0.783398 1.71132 5.65508 1.71132 11.6432C1.71132 14.2105 2.64706 16.7039 4.34628 18.6635L4.52324 18.8678L2.41601 22.7855L6.25214 20.4027L6.46308 20.5473C8.33105 21.8277 10.5213 22.5045 12.7975 22.5045C18.909 22.5045 23.881 17.6322 23.881 11.6432C23.8809 5.65508 18.9088 0.783398 12.7971 0.783398Z" fill="#282D33"/>
<path d="M21.7117 10.3234C21.674 10.0779 21.6252 9.83086 21.566 9.58906L22.3273 9.40371C22.3914 9.66758 22.4449 9.93711 22.4857 10.2051L21.7117 10.3234ZM21.3574 8.86934C21.2785 8.63418 21.1877 8.39922 21.0881 8.1707L21.8061 7.85742C21.9148 8.10625 22.0137 8.3627 22.1002 8.61914L21.3574 8.86934ZM20.7592 7.49727C20.6412 7.27988 20.5115 7.06348 20.3742 6.8543L21.0289 6.42383C21.1789 6.65176 21.3195 6.8875 21.448 7.12441L20.7592 7.49727ZM19.9359 6.2457C19.7818 6.04941 19.6178 5.85762 19.448 5.67539L20.0219 5.1418C20.2061 5.33984 20.3846 5.54824 20.5521 5.76133L19.9359 6.2457ZM18.9141 5.14785C18.7309 4.98105 18.5371 4.81895 18.3389 4.66621L18.816 4.04531C19.0318 4.21133 19.2426 4.3873 19.4416 4.56875L18.9141 5.14785ZM17.7246 4.23359C17.516 4.09902 17.2984 3.9709 17.0775 3.85313L17.4465 3.16191C17.6861 3.28984 17.9229 3.42891 18.1496 3.57539L17.7246 4.23359ZM16.4014 3.52715C16.1721 3.42832 15.9363 3.3377 15.6998 3.25801L15.9504 2.51582C16.2068 2.60234 16.4631 2.70059 16.7117 2.8082L16.4014 3.52715ZM14.9791 3.04746C14.7385 2.9877 14.4908 2.93691 14.2436 2.89687L14.3695 2.12363C14.6377 2.16719 14.9063 2.22227 15.1684 2.2873L14.9791 3.04746ZM13.4982 2.80645C13.2502 2.78652 12.9977 2.77656 12.7471 2.77656V1.99316C13.0184 1.99316 13.2922 2.0041 13.5607 2.02578L13.4982 2.80645Z" fill="#282D33"/>
<path d="M14.2617 17.2664H13.4781V10.9896H9.15195V10.2063H14.2617V17.2664Z" fill="#282D33"/>
<path d="M15.8451 17.6582H10.7357V10.598H11.5191V16.8748H15.8451V17.6582Z" fill="#282D33"/>
<path d="M12.4982 8.67715C11.4049 8.67715 10.5156 7.80195 10.5156 6.72617C10.5156 5.65039 11.4051 4.7752 12.4982 4.7752C13.5914 4.7752 14.4809 5.65039 14.4809 6.72617C14.4811 7.80195 13.5914 8.67715 12.4982 8.67715ZM12.4982 5.5584C11.8369 5.5584 11.2988 6.08223 11.2988 6.72617C11.2988 7.37012 11.8367 7.89395 12.4982 7.89395C13.1596 7.89395 13.6979 7.37012 13.6979 6.72617C13.6979 6.08242 13.1596 5.5584 12.4982 5.5584Z" fill="#282D33"/>
</svg>
