<?xml version="1.0" encoding="utf-8"?>
<!-- Generator: Adobe Illustrator 16.0.0, SVG Export Plug-In . SVG Version: 6.00 Build 0)  -->
<!DOCTYPE svg PUBLIC "-//W3C//DTD SVG 1.1//EN" "http://www.w3.org/Graphics/SVG/1.1/DTD/svg11.dtd">
<svg version="1.1" id="Слой_1" xmlns="http://www.w3.org/2000/svg" xmlns:xlink="http://www.w3.org/1999/xlink" x="0px" y="0px"
	 width="512px" height="512px" viewBox="0 0 512 512" enable-background="new 0 0 512 512" xml:space="preserve">
<g id="snow_rain">
	<g>
		<path fill="#CCD1D9" d="M351.997,10.668c-46.123,0-87.677,19.523-116.879,50.749c-15.64-18.023-38.718-29.414-64.451-29.414
			c-47.132,0-85.333,38.202-85.333,85.333c0,0.711,0.008,1.422,0.031,2.125c-48.702,9.875-85.357,52.92-85.357,104.536
			c0,58.904,47.749,106.652,106.661,106.652h245.328c88.356,0,159.995-71.622,159.995-159.987
			C511.992,82.298,440.354,10.668,351.997,10.668z"/>
	</g>
	<g>
		<path fill="#AAB2BC" d="M453.962,47.37c22.906,27.687,36.688,63.209,36.688,101.966c0,88.356-71.622,160.002-159.995,160.002
			H85.334c-24.016,0-46.171-7.952-63.998-21.343c19.46,25.905,50.436,42.654,85.333,42.654h245.328
			c88.356,0,159.995-71.622,159.995-159.987C511.992,121.055,489.399,76.713,453.962,47.37z"/>
	</g>
	<path fill="#CCD1D9" d="M192.002,426.647c0,5.906-4.781,10.672-10.672,10.672c-5.89,0-10.663-4.766-10.663-10.672
		c0-5.875,4.773-10.656,10.663-10.656C187.221,415.991,192.002,420.772,192.002,426.647z"/>
	<path fill="#CCD1D9" d="M256,426.647c0,5.906-4.781,10.672-10.672,10.672c-5.89,0-10.663-4.766-10.663-10.672
		c0-5.875,4.773-10.656,10.663-10.656C251.219,415.991,256,420.772,256,426.647z"/>
	<path fill="#CCD1D9" d="M287.218,362.32c0,5.891-4.766,10.672-10.655,10.672c-5.898,0-10.672-4.781-10.672-10.672
		c0-5.89,4.773-10.671,10.672-10.671C282.452,351.649,287.218,356.431,287.218,362.32z"/>
	<path fill="#CCD1D9" d="M223.892,362.32c0,5.891-4.78,10.672-10.671,10.672s-10.664-4.781-10.664-10.672
		c0-5.89,4.773-10.671,10.664-10.671S223.892,356.431,223.892,362.32z"/>
	<path fill="#CCD1D9" d="M160.003,490.645c0,5.906-4.78,10.672-10.671,10.672s-10.664-4.766-10.664-10.672
		c0-5.875,4.773-10.656,10.664-10.656S160.003,484.77,160.003,490.645z"/>
	<path fill="#CCD1D9" d="M224.001,490.645c0,5.906-4.78,10.672-10.671,10.672s-10.664-4.766-10.664-10.672
		c0-5.875,4.773-10.656,10.664-10.656S224.001,484.77,224.001,490.645z"/>
	<g>
		<path fill="#5D9CEC" d="M85.326,501.332c-1.602,0-3.227-0.375-4.758-1.141c-5.273-2.641-7.406-9.047-4.773-14.297l63.998-127.995
			c2.633-5.281,9.039-7.406,14.313-4.781c5.266,2.625,7.405,9.03,4.766,14.312L94.873,495.426
			C93.006,499.16,89.24,501.332,85.326,501.332z"/>
	</g>
	<g>
		<path fill="#5D9CEC" d="M277.313,501.332c-1.594,0-3.219-0.375-4.75-1.141c-5.273-2.641-7.406-9.047-4.773-14.297l63.99-127.995
			c2.641-5.281,9.046-7.406,14.312-4.781c5.281,2.625,7.406,9.03,4.781,14.312l-63.998,127.996
			C284.999,499.16,281.233,501.332,277.313,501.332z"/>
	</g>
</g>
</svg>
