<?xml version="1.0" encoding="utf-8"?>
<!-- Generator: Adobe Illustrator 16.0.0, SVG Export Plug-In . SVG Version: 6.00 Build 0)  -->
<!DOCTYPE svg PUBLIC "-//W3C//DTD SVG 1.1//EN" "http://www.w3.org/Graphics/SVG/1.1/DTD/svg11.dtd">
<svg version="1.1" id="Слой_1" xmlns="http://www.w3.org/2000/svg" xmlns:xlink="http://www.w3.org/1999/xlink" x="0px" y="0px"
	 width="512px" height="512px" viewBox="0 0 512 512" enable-background="new 0 0 512 512" xml:space="preserve">
<g id="parachute">
	<rect x="88.9" y="224.009" fill="#CCD1D9" width="31.999" height="21.327"/>
	<rect x="88.9" y="96.013" fill="#CCD1D9" width="31.999" height="21.327"/>
	<g>
		<path fill="#E6E9ED" d="M85.346,511.992c-5.89,0-10.671-4.781-10.671-10.656V51.342c0-5.891,4.781-10.672,10.671-10.672
			c5.891,0,10.664,4.781,10.664,10.672v449.994C96.01,507.211,91.236,511.992,85.346,511.992z"/>
	</g>
	<g>
		<path fill="#ED5564" d="M404.281,120.043L117.345,85.341v170.667l286.937-34.717c30.78-3.703,54.372-24.968,54.372-50.624
			C458.653,145.012,435.062,123.762,404.281,120.043z"/>
	</g>
	<polygon fill="#E6E9ED" points="191.53,247.023 255.528,239.289 255.528,102.06 191.53,94.31 	"/>
	<polygon fill="#E6E9ED" points="319.534,231.54 383.531,223.806 383.531,117.527 319.534,109.793 	"/>
	<path fill="#CCD1D9" d="M85.346,0.008c-17.679,0-31.999,14.328-31.999,31.999c0,17.671,14.32,32,31.999,32
		c17.671,0,31.999-14.328,31.999-32C117.345,14.336,103.017,0.008,85.346,0.008L85.346,0.008z"/>
	<path fill="#E6E9ED" d="M74.674,32.007c5.882,0,10.671-4.788,10.671-10.663c0-5.883-4.789-10.672-10.671-10.672
		c-5.883,0-10.664,4.789-10.664,10.672C64.01,27.219,68.792,32.007,74.674,32.007z"/>
</g>
</svg>
