<svg width="25" height="25" viewBox="0 0 25 25" fill="none" xmlns="http://www.w3.org/2000/svg">
<path d="M12.5 16.4725C9.10742 16.4725 6.34746 13.7402 6.34746 10.3814C6.34746 7.02246 9.10742 4.28984 12.5 4.28984C15.8924 4.28984 18.6525 7.02246 18.6525 10.3814C18.6527 13.7402 15.8924 16.4725 12.5 16.4725ZM12.5 5.07344C9.53945 5.07344 7.13086 7.45449 7.13086 10.3816C7.13086 13.3082 9.53945 15.6891 12.5 15.6891C15.4605 15.6891 17.8687 13.3084 17.8687 10.3816C17.8687 7.45449 15.4605 5.07344 12.5 5.07344Z" fill="#282D33"/>
<path d="M12.5 11.8045C11.4217 11.8045 10.5443 10.9348 10.5443 9.86543C10.5443 8.79629 11.4217 7.92637 12.5 7.92637C13.5785 7.92637 14.4559 8.79629 14.4559 9.86543C14.4559 10.9348 13.5783 11.8045 12.5 11.8045ZM12.5 8.71035C11.8537 8.71035 11.3279 9.22852 11.3279 9.86563C11.3279 10.5027 11.8537 11.0211 12.5 11.0211C13.1463 11.0211 13.6719 10.5027 13.6719 9.86563C13.6719 9.22852 13.1463 8.71035 12.5 8.71035Z" fill="#282D33"/>
<path d="M12.5 14.7272C11.3814 14.7272 10.3147 14.307 9.4961 13.5439L9.37129 13.4279V13.1318C9.37129 12.0625 10.2486 11.1926 11.3272 11.1926H13.6729C14.7516 11.1926 15.6291 12.0625 15.6291 13.1318V13.4279L15.5043 13.5441C14.6852 14.307 13.6182 14.7272 12.5 14.7272ZM10.1561 13.0828C10.8109 13.6391 11.6369 13.9436 12.5002 13.9436C13.3633 13.9436 14.1893 13.6389 14.8445 13.0826C14.8182 12.4682 14.3029 11.9764 13.673 11.9764H11.3273C10.6975 11.9764 10.1822 12.4684 10.1561 13.0828Z" fill="#282D33"/>
<path d="M12.5006 25L12.248 24.7869C11.8289 24.4332 1.98145 16.0625 1.98145 10.4092C1.98145 4.66953 6.70039 0 12.5006 0C18.3002 0 23.0186 4.66953 23.0186 10.4092C23.0186 16.0625 13.1725 24.4334 12.7531 24.7867L12.5006 25ZM12.5006 0.783594C7.13242 0.783594 2.76504 5.10156 2.76504 10.4092C2.76504 15.2219 10.9463 22.6098 12.5006 23.9695C14.0551 22.609 22.235 15.2215 22.235 10.4092C22.2352 5.10156 17.868 0.783594 12.5006 0.783594Z" fill="#282D33"/>
</svg>
