<?xml version="1.0" encoding="utf-8"?>
<!-- Generator: Adobe Illustrator 16.0.0, SVG Export Plug-In . SVG Version: 6.00 Build 0)  -->
<!DOCTYPE svg PUBLIC "-//W3C//DTD SVG 1.1//EN" "http://www.w3.org/Graphics/SVG/1.1/DTD/svg11.dtd">
<svg version="1.1" id="Слой_1" xmlns="http://www.w3.org/2000/svg" xmlns:xlink="http://www.w3.org/1999/xlink" x="0px" y="0px"
	 width="512px" height="512px" viewBox="0 0 512 512" enable-background="new 0 0 512 512" xml:space="preserve">
<g id="moon_1">
	<g>
		<path fill="#F6BB42" d="M277.316,149.457h-42.632c-5.891,0-10.672-4.773-10.672-10.664s4.781-10.664,10.672-10.664h42.632
			c5.905,0,10.687,4.773,10.687,10.664S283.222,149.457,277.316,149.457z"/>
	</g>
	<g>
		<path fill="#FFCE54" d="M405.281,362.715c-141.332,0-255.906-114.582-255.906-255.913c0-31.765,5.797-62.186,16.374-90.255
			C68.955,53.038,0.098,146.52,0.098,256.086c0,141.331,114.575,255.906,255.914,255.906c109.551,0,203.048-68.857,239.517-165.651
			C467.466,356.919,437.062,362.715,405.281,362.715z"/>
	</g>
	<g>
		<path fill="#F6BB42" d="M277.316,490.664C136,490.664,21.426,376.09,21.426,234.758c0-65.217,24.405-124.738,64.561-169.924
			C33.3,111.708,0.098,180.01,0.098,256.086c0,141.331,114.575,255.906,255.914,255.906c76.053,0,144.363-33.203,191.235-85.903
			C402.063,466.273,342.532,490.664,277.316,490.664z"/>
	</g>
	<path fill="#4A89DC" d="M383.969,138.793c0,5.891-4.781,10.664-10.688,10.664c-5.875,0-10.656-4.773-10.656-10.664
		s4.781-10.664,10.656-10.664C379.188,128.129,383.969,132.902,383.969,138.793z"/>
	<path fill="#48CFAD" d="M330.658,245.422c0,5.883-4.781,10.664-10.687,10.664c-5.875,0-10.656-4.781-10.656-10.664
		c0-5.891,4.781-10.664,10.656-10.664C325.877,234.758,330.658,239.531,330.658,245.422z"/>
	<path fill="#ED5564" d="M511.902,117.293c0,5.891-4.781,10.664-10.656,10.664c-5.874,0-10.655-4.773-10.655-10.664
		c0-5.89,4.781-10.663,10.655-10.663C507.121,106.63,511.902,111.403,511.902,117.293z"/>
	<path fill="#AC92EB" d="M319.972,10.664c0,5.891-4.75,10.664-10.656,10.664c-5.875,0-10.656-4.773-10.656-10.664
		c0-5.883,4.781-10.656,10.656-10.656C315.222,0.008,319.972,4.781,319.972,10.664z"/>
	<path fill="#FFCE54" d="M256.012,96.138c-5.891,0-10.672,4.781-10.672,10.664v63.982c0,5.883,4.781,10.656,10.672,10.656
		c5.875,0,10.656-4.773,10.656-10.656v-63.982C266.668,100.919,261.887,96.138,256.012,96.138z"/>
	<path fill="#F6BB42" d="M437.28,213.431c-5.906,0-10.656,4.773-10.656,10.664v63.967c0,5.906,4.75,10.672,10.656,10.672
		c5.874,0,10.654-4.766,10.654-10.672v-63.967C447.935,218.205,443.154,213.431,437.28,213.431z"/>
	<g>
		<path fill="#FFCE54" d="M458.591,266.742h-42.653c-5.875,0-10.656-4.773-10.656-10.656c0-5.891,4.781-10.664,10.656-10.664h42.653
			c5.906,0,10.656,4.773,10.656,10.664C469.247,261.969,464.497,266.742,458.591,266.742z"/>
	</g>
</g>
</svg>
