<?xml version="1.0" encoding="utf-8"?>
<!-- Generator: Adobe Illustrator 16.0.0, SVG Export Plug-In . SVG Version: 6.00 Build 0)  -->
<!DOCTYPE svg PUBLIC "-//W3C//DTD SVG 1.1//EN" "http://www.w3.org/Graphics/SVG/1.1/DTD/svg11.dtd">
<svg version="1.1" id="Слой_1" xmlns="http://www.w3.org/2000/svg" xmlns:xlink="http://www.w3.org/1999/xlink" x="0px" y="0px"
	 width="512px" height="512px" viewBox="0 0 512 512" enable-background="new 0 0 512 512" xml:space="preserve">
<g id="wind">
	<path fill="#CCD1D9" d="M117.341,256h245.296v-0.016c47.141,0,85.341-38.202,85.341-85.326c0-47.139-38.2-85.341-85.341-85.341
		c-47.122,0-85.324,38.202-85.324,85.341v0.016h0.031l0,0c0,5.891,4.765,10.672,10.655,10.672s10.656-4.781,10.656-10.672
		c0-0.141,0-0.281,0-0.438c0.219-35.092,28.843-63.591,63.981-63.591c35.297,0,64.015,28.718,64.015,64.013
		c0,35.28-28.718,63.998-64.015,63.998v0.016H117.341c-5.891,0-10.672,4.781-10.672,10.672S111.45,256,117.341,256z"/>
	<path fill="#E6E9ED" d="M447.993,277.343H10.672c-5.891,0-10.664,4.766-10.664,10.656s4.773,10.672,10.664,10.672h437.321
		c23.531,0,42.656,19.14,42.656,42.67s-19.125,42.686-42.656,42.686c-23.467,0-42.56-19.03-42.685-42.451
		c0-0.078,0.031-0.156,0.031-0.234c0-5.891-4.781-10.672-10.688-10.672c-5.875,0-10.656,4.781-10.656,10.672l0,0h-0.016
		c0,35.358,28.656,64.014,64.013,64.014c35.344,0,63.999-28.655,63.999-64.014C511.992,305.999,483.337,277.343,447.993,277.343z"/>
	<path fill="#AAB2BC" d="M309.312,319.982L309.312,319.982H74.67c-5.891,0-10.664,4.78-10.664,10.671s4.773,10.672,10.664,10.672
		h234.642v-0.016c17.655,0,32.029,14.375,32.029,32.015c0,17.655-14.374,32.03-32.029,32.03c-17.5,0-31.749-14.125-31.999-31.562
		c0-0.156,0.031-0.313,0.031-0.469c0-5.891-4.781-10.656-10.68-10.656c-5.891,0-10.664,4.766-10.664,10.656h-0.039
		c0,29.468,23.882,53.358,53.351,53.358c29.468,0,53.341-23.891,53.341-53.358C362.652,343.872,338.779,319.982,309.312,319.982z"/>
</g>
</svg>
